<svg xmlns="http://www.w3.org/2000/svg" width="32.183" height="36.183" viewBox="0 0 8.515 9.574"><g transform="translate(-418.274 -128.946)"><path d="M2318.575-686.276c-1.71-.987.62-17.833.11-19.74-.512-1.907-10.952-15.331-9.965-17.04.987-1.71 17.833.62 19.74.108 1.907-.51 15.331-10.951 17.041-9.964s-.62 17.833-.11 19.74c.512 1.907 10.953 15.331 9.966 17.04-.987 1.71-17.834-.62-19.74-.108-1.908.51-15.332 10.951-17.042 9.964z" style="opacity:.22;fill:#000;fill-opacity:1;fill-rule:evenodd;stroke:#000;stroke-width:4;stroke-miterlimit:4;stroke-dasharray:none;stroke-opacity:1" transform="rotate(-6.655 2519.59 -440.76)scale(.15867)"/><path d="M2318.575-686.276c-1.71-.987.62-17.833.11-19.74-.512-1.907-10.952-15.331-9.965-17.04.987-1.71 17.833.62 19.74.108 1.907-.51 15.331-10.951 17.041-9.964s-.62 17.833-.11 19.74c.512 1.907 10.953 15.331 9.966 17.04-.987 1.71-17.834-.62-19.74-.108-1.908.51-15.332 10.951-17.042 9.964z" style="fill:#ffb921;fill-opacity:1;fill-rule:evenodd;stroke:#000;stroke-width:4;stroke-miterlimit:4;stroke-dasharray:none;stroke-opacity:1" transform="rotate(-6.655 2510.487 -441.29)scale(.15867)"/><circle cx="422.532" cy="133.204" r=".962" style="fill:#000;fill-opacity:1;fill-rule:evenodd;stroke-width:.136822"/></g><path d="M628.947 116.292c-.065-.478-.119-1.08-.119-1.338 0-.284-.33-.855-.84-1.451-.956-1.12-.9-1.209.745-1.209.903 0 1.093-.079 2.03-.842.568-.463 1.081-.842 1.14-.842s.106.51.106 1.135c0 1.276.146 1.637 1.086 2.688.605.676.63.746.3.875-.196.077-.784.146-1.306.153-.785.011-1.075.119-1.684.625-1.429 1.187-1.325 1.172-1.458.206m2.206-1.673c.162-.161.294-.492.294-.735 0-1.051-1.335-1.37-1.853-.442-.247.441-.242.544.045.982.366.559 1.061.649 1.514.195" style="fill:#facc15;fill-opacity:1;stroke-width:.187089" transform="translate(-626.208 -109.615)"/></svg>