<?xml version="1.0" encoding="UTF-8" standalone="no"?>
<svg
   width="8.5151625mm"
   height="9.5735025mm"
   viewBox="0 0 8.5151624 9.5735025"
   version="1.1"
   id="svg8"
   inkscape:version="1.4 (e7c3feb1, 2024-10-09)"
   sodipodi:docname="logo.svg"
   xmlns:inkscape="http://www.inkscape.org/namespaces/inkscape"
   xmlns:sodipodi="http://sodipodi.sourceforge.net/DTD/sodipodi-0.dtd"
   xmlns="http://www.w3.org/2000/svg"
   xmlns:svg="http://www.w3.org/2000/svg"
   xmlns:rdf="http://www.w3.org/1999/02/22-rdf-syntax-ns#"
   xmlns:cc="http://creativecommons.org/ns#"
   xmlns:dc="http://purl.org/dc/elements/1.1/">
  <defs
     id="defs2" />
  <sodipodi:namedview
     id="base"
     pagecolor="#ffffff"
     bordercolor="#666666"
     borderopacity="1.0"
     inkscape:pageopacity="0.0"
     inkscape:pageshadow="2"
     inkscape:zoom="2.56"
     inkscape:cx="93.945312"
     inkscape:cy="87.304688"
     inkscape:document-units="px"
     inkscape:current-layer="layer1"
     showgrid="false"
     showborder="false"
     inkscape:snap-global="false"
     inkscape:window-width="1512"
     inkscape:window-height="746"
     inkscape:window-x="0"
     inkscape:window-y="38"
     inkscape:window-maximized="0"
     inkscape:snap-intersection-paths="true"
     inkscape:object-paths="true"
     inkscape:snap-smooth-nodes="true"
     showguides="true"
     inkscape:guide-bbox="true"
     inkscape:snap-object-midpoints="true"
     inkscape:snap-center="true"
     inkscape:document-rotation="0"
     fit-margin-top="0"
     fit-margin-left="0"
     fit-margin-right="0"
     fit-margin-bottom="0"
     inkscape:showpageshadow="2"
     inkscape:pagecheckerboard="0"
     inkscape:deskcolor="#d1d1d1">
    <inkscape:grid
       type="axonomgrid"
       id="grid815"
       units="mm"
       empspacing="5"
       originx="-626.20733"
       originy="-109.6152"
       spacingy="1"
       gridanglex="30"
       gridanglez="30" />
    <sodipodi:guide
       position="-647.6388,-13.21551"
       orientation="1,0"
       id="guide863"
       inkscape:locked="false" />
  </sodipodi:namedview>
  <metadata
     id="metadata5">
    <rdf:RDF>
      <cc:Work
         rdf:about="">
        <dc:format>image/svg+xml</dc:format>
        <dc:type
           rdf:resource="http://purl.org/dc/dcmitype/StillImage" />
      </cc:Work>
    </rdf:RDF>
  </metadata>
  <g
     inkscape:label="Layer 1"
     inkscape:groupmode="layer"
     id="layer1"
     transform="translate(-626.20755,-109.6152)">
    <g
       id="g1291"
       transform="translate(47.889583)">
      <g
         id="g3406"
         transform="translate(160.04398,-19.331121)">
        <path
           inkscape:transform-center-y="1.5190676e-05"
           inkscape:transform-center-x="1.4657571e-05"
           transform="matrix(0.15760094,-0.01838468,0.01838468,0.15760094,68.045828,288.9687)"
           d="m 2318.5752,-686.27555 c -1.7096,-0.98703 0.6201,-17.83353 0.1092,-19.74033 -0.511,-1.90679 -10.9518,-15.33144 -9.9648,-17.04103 0.9871,-1.70958 17.8336,0.62012 19.7404,0.10919 1.9068,-0.51092 15.3314,-10.95175 17.041,-9.96472 1.7096,0.98703 -0.6201,17.83353 -0.1092,19.74033 0.5109,1.9068 10.9518,15.33144 9.9647,17.04103 -0.987,1.70959 -17.8335,-0.62012 -19.7403,-0.10919 -1.9068,0.51092 -15.3314,10.95175 -17.041,9.96472 z"
           inkscape:randomized="0"
           inkscape:rounded="0.1"
           inkscape:flatsided="false"
           sodipodi:arg2="2.8797933"
           sodipodi:arg1="2.0943951"
           sodipodi:r2="13.824791"
           sodipodi:r1="26.925823"
           sodipodi:cy="-709.59399"
           sodipodi:cx="2332.0381"
           sodipodi:sides="4"
           id="path3400"
           style="opacity:0.22;fill:#000000;fill-opacity:1;fill-rule:evenodd;stroke:#000000;stroke-width:4;stroke-miterlimit:4;stroke-dasharray:none;stroke-opacity:1"
           sodipodi:type="star" />
        <path
           sodipodi:type="star"
           style="fill:#ffb921;fill-opacity:1;fill-rule:evenodd;stroke:#000000;stroke-width:4;stroke-miterlimit:4;stroke-dasharray:none;stroke-opacity:1"
           id="path3402"
           sodipodi:sides="4"
           sodipodi:cx="2332.0381"
           sodipodi:cy="-709.59399"
           sodipodi:r1="26.925823"
           sodipodi:r2="13.824791"
           sodipodi:arg1="2.0943951"
           sodipodi:arg2="2.8797933"
           inkscape:flatsided="false"
           inkscape:rounded="0.1"
           inkscape:randomized="0"
           d="m 2318.5752,-686.27555 c -1.7096,-0.98703 0.6201,-17.83353 0.1092,-19.74033 -0.511,-1.90679 -10.9518,-15.33144 -9.9648,-17.04103 0.9871,-1.70958 17.8336,0.62012 19.7404,0.10919 1.9068,-0.51092 15.3314,-10.95175 17.041,-9.96472 1.7096,0.98703 -0.6201,17.83353 -0.1092,19.74033 0.5109,1.9068 10.9518,15.33144 9.9647,17.04103 -0.987,1.70959 -17.8335,-0.62012 -19.7403,-0.10919 -1.9068,0.51092 -15.3314,10.95175 -17.041,9.96472 z"
           transform="matrix(0.15760094,-0.01838468,0.01838468,0.15760094,68.045828,287.91036)"
           inkscape:transform-center-x="1.4657571e-05"
           inkscape:transform-center-y="1.5190676e-05" />
        <circle
           r="0.96188992"
           cy="133.20389"
           cx="422.53156"
           id="circle3404"
           style="fill:#000000;fill-opacity:1;fill-rule:evenodd;stroke-width:0.136822" />
      </g>
    </g>
    <path
       style="fill:#facc15;fill-opacity:1;stroke-width:0.187089"
       d="m 628.94742,116.29197 c -0.0656,-0.47829 -0.1192,-1.08032 -0.1192,-1.33784 0,-0.28403 -0.33038,-0.85494 -0.83992,-1.45134 -0.95628,-1.11934 -0.90122,-1.20873 0.74454,-1.20873 0.90324,0 1.09329,-0.0788 2.03004,-0.8419 0.56846,-0.46304 1.0813,-0.8419 1.1397,-0.8419 0.0584,0 0.10615,0.51068 0.10615,1.13483 0,1.27559 0.14586,1.63655 1.08603,2.68751 0.6054,0.67671 0.62934,0.74654 0.30041,0.87552 -0.19658,0.0771 -0.78428,0.14607 -1.30598,0.1533 -0.7856,0.0109 -1.07485,0.11811 -1.68381,0.62413 -1.42894,1.18743 -1.32551,1.17278 -1.45796,0.20642 z m 2.20604,-1.67267 c 0.16172,-0.16169 0.29401,-0.49244 0.29401,-0.73499 0,-1.0517 -1.33541,-1.37045 -1.85386,-0.4425 -0.24667,0.44149 -0.24196,0.54398 0.0452,0.98221 0.36624,0.55894 1.0614,0.64857 1.51466,0.19528 z"
       id="path997" />
  </g>
</svg>
