<?xml version="1.0" encoding="UTF-8" standalone="no"?>
<svg
   xmlns:dc="http://purl.org/dc/elements/1.1/"
   xmlns:cc="http://creativecommons.org/ns#"
   xmlns:rdf="http://www.w3.org/1999/02/22-rdf-syntax-ns#"
   xmlns:svg="http://www.w3.org/2000/svg"
   xmlns="http://www.w3.org/2000/svg"
   xmlns:sodipodi="http://sodipodi.sourceforge.net/DTD/sodipodi-0.dtd"
   xmlns:inkscape="http://www.inkscape.org/namespaces/inkscape"
   width="55.674648mm"
   height="52.328659mm"
   viewBox="0 0 55.674648 52.328659"
   version="1.1"
   id="svg8"
   inkscape:version="1.0.1 (3bc2e813f5, 2020-09-07)"
   sodipodi:docname="logo_with_crown.svg">
  <defs
     id="defs2">
    <filter
       inkscape:collect="always"
       style="color-interpolation-filters:sRGB"
       id="filter2862"
       x="-0.014218997"
       width="1.028438"
       y="-0.017278116"
       height="1.0345562">
      <feGaussianBlur
         inkscape:collect="always"
         stdDeviation="0.28356887"
         id="feGaussianBlur2864" />
    </filter>
  </defs>
  <sodipodi:namedview
     id="base"
     pagecolor="#ffffff"
     bordercolor="#666666"
     borderopacity="1.0"
     inkscape:pageopacity="0.0"
     inkscape:pageshadow="2"
     inkscape:zoom="2.56"
     inkscape:cx="88.784059"
     inkscape:cy="78.972854"
     inkscape:document-units="px"
     inkscape:current-layer="layer1"
     showgrid="false"
     showborder="false"
     inkscape:snap-global="false"
     inkscape:window-width="1920"
     inkscape:window-height="1057"
     inkscape:window-x="-8"
     inkscape:window-y="-8"
     inkscape:window-maximized="1"
     inkscape:snap-intersection-paths="true"
     inkscape:object-paths="true"
     inkscape:snap-smooth-nodes="true"
     showguides="true"
     inkscape:guide-bbox="true"
     inkscape:snap-object-midpoints="true"
     inkscape:snap-center="true"
     inkscape:document-rotation="0"
     fit-margin-top="0"
     fit-margin-left="0"
     fit-margin-right="0"
     fit-margin-bottom="0">
    <inkscape:grid
       type="axonomgrid"
       id="grid815"
       units="mm"
       empspacing="5"
       originx="-625.32253"
       originy="-108.84672" />
    <sodipodi:guide
       position="-646.75398,-13.983993"
       orientation="1,0"
       id="guide863"
       inkscape:locked="false" />
  </sodipodi:namedview>
  <metadata
     id="metadata5">
    <rdf:RDF>
      <cc:Work
         rdf:about="">
        <dc:format>image/svg+xml</dc:format>
        <dc:type
           rdf:resource="http://purl.org/dc/dcmitype/StillImage" />
        <dc:title></dc:title>
      </cc:Work>
    </rdf:RDF>
  </metadata>
  <g
     inkscape:label="Layer 1"
     inkscape:groupmode="layer"
     id="layer1"
     transform="translate(-625.32273,-108.84672)">
    <g
       id="g1291"
       transform="translate(47.889583)">
      <g
         transform="matrix(-0.9759474,-0.23397197,-0.23397197,0.9759474,1025.7627,108.35433)"
         id="g3342">
        <path
           inkscape:transform-center-y="1.5190676e-05"
           inkscape:transform-center-x="1.4657571e-05"
           transform="matrix(0.15760094,-0.01838468,0.01838468,0.15760094,68.045828,288.9687)"
           d="m 2318.5752,-686.27555 c -1.7096,-0.98703 0.6201,-17.83353 0.1092,-19.74033 -0.511,-1.90679 -10.9518,-15.33144 -9.9648,-17.04103 0.9871,-1.70958 17.8336,0.62012 19.7404,0.10919 1.9068,-0.51092 15.3314,-10.95175 17.041,-9.96472 1.7096,0.98703 -0.6201,17.83353 -0.1092,19.74033 0.5109,1.9068 10.9518,15.33144 9.9647,17.04103 -0.987,1.70959 -17.8335,-0.62012 -19.7403,-0.10919 -1.9068,0.51092 -15.3314,10.95175 -17.041,9.96472 z"
           inkscape:randomized="0"
           inkscape:rounded="0.1"
           inkscape:flatsided="false"
           sodipodi:arg2="2.8797933"
           sodipodi:arg1="2.0943951"
           sodipodi:r2="13.824791"
           sodipodi:r1="26.925823"
           sodipodi:cy="-709.59399"
           sodipodi:cx="2332.0381"
           sodipodi:sides="4"
           id="path3336"
           style="opacity:0.22;fill:#000000;fill-opacity:1;fill-rule:evenodd;stroke:#000000;stroke-width:4;stroke-miterlimit:4;stroke-dasharray:none;stroke-opacity:1"
           sodipodi:type="star" />
        <path
           sodipodi:type="star"
           style="fill:#ffb921;fill-opacity:1;fill-rule:evenodd;stroke:#000000;stroke-width:4;stroke-miterlimit:4;stroke-dasharray:none;stroke-opacity:1"
           id="path3338"
           sodipodi:sides="4"
           sodipodi:cx="2332.0381"
           sodipodi:cy="-709.59399"
           sodipodi:r1="26.925823"
           sodipodi:r2="13.824791"
           sodipodi:arg1="2.0943951"
           sodipodi:arg2="2.8797933"
           inkscape:flatsided="false"
           inkscape:rounded="0.1"
           inkscape:randomized="0"
           d="m 2318.5752,-686.27555 c -1.7096,-0.98703 0.6201,-17.83353 0.1092,-19.74033 -0.511,-1.90679 -10.9518,-15.33144 -9.9648,-17.04103 0.9871,-1.70958 17.8336,0.62012 19.7404,0.10919 1.9068,-0.51092 15.3314,-10.95175 17.041,-9.96472 1.7096,0.98703 -0.6201,17.83353 -0.1092,19.74033 0.5109,1.9068 10.9518,15.33144 9.9647,17.04103 -0.987,1.70959 -17.8335,-0.62012 -19.7403,-0.10919 -1.9068,0.51092 -15.3314,10.95175 -17.041,9.96472 z"
           transform="matrix(0.15760094,-0.01838468,0.01838468,0.15760094,68.045828,287.91036)"
           inkscape:transform-center-x="1.4657571e-05"
           inkscape:transform-center-y="1.5190676e-05" />
        <circle
           r="0.96188992"
           cy="133.20389"
           cx="422.53156"
           id="circle3340"
           style="fill:#000000;fill-opacity:1;fill-rule:evenodd;stroke-width:0.136822" />
      </g>
      <g
         transform="matrix(0.40164382,-0.02172329,0.02172329,0.40164382,558.99379,55.474639)"
         id="g3426">
        <path
           inkscape:connector-curvature="0"
           id="path3418"
           d="m 113.37448,141.00328 -4.86431,4.39663 -7.57731,-1.33325 2.0345,9.09763 10.40712,-0.0641 10.4066,0.0641 2.0345,-9.09763 -7.5768,1.33325 z"
           style="fill:#fbbf2d;fill-opacity:1;stroke:#000000;stroke-width:3.96875;stroke-linecap:round;stroke-linejoin:round;stroke-miterlimit:4;stroke-dasharray:none;stroke-opacity:1" />
        <path
           style="fill:#fbbf2d;fill-opacity:1;stroke:none;stroke-width:0.264583px;stroke-linecap:butt;stroke-linejoin:miter;stroke-opacity:1"
           d="m 113.37448,141.00328 -4.86431,4.39663 -7.57731,-1.33325 2.0345,9.09763 10.40712,-0.0641 10.4066,0.0641 2.0345,-9.09763 -7.5768,1.33325 z"
           id="path3420"
           inkscape:connector-curvature="0" />
        <path
           style="fill:#eb732a;fill-opacity:1;stroke:none;stroke-width:0.264583px;stroke-linecap:butt;stroke-linejoin:miter;stroke-opacity:1"
           d="m 125.81558,144.06666 -4.07624,0.71726 -1.51412,8.33283 -0.0119,0.0253 3.56774,0.0222 z"
           id="path3422"
           inkscape:connector-curvature="0" />
        <ellipse
           style="fill:#ffffff;fill-rule:evenodd;stroke-width:0.254162"
           id="ellipse3424"
           cx="-77.70974"
           cy="159.43716"
           rx="2.5687139"
           ry="3.4366355"
           transform="matrix(0.41701367,-0.90890021,0.87067831,0.49185291,0,0)" />
      </g>
      <path
         style="opacity:0.22;fill:#000000;fill-opacity:1;stroke:none;stroke-width:0.253736px;stroke-linecap:butt;stroke-linejoin:miter;stroke-opacity:1;filter:url(#filter2862)"
         d="m 619.04648,117.779 -0.90938,0.11992 -2.71874,0.3588 -0.008,0.18684 -0.0738,-0.17643 -2.92738,0.38754 -0.0322,0.26018 -0.0807,-0.2453 -2.55619,0.33699 -0.36873,-1.07739 -0.57388,0.0307 -1.45502,0.0778 -0.0505,-0.15561 -0.0327,0.15958 -2.39464,0.12786 -0.33651,1.10316 c -0.0643,-0.0884 -0.11938,-0.18253 -0.19375,-0.26415 -0.56966,-0.63227 -1.38112,-0.987 -2.26777,-1.03378 l -3.67373,-0.19426 -0.16799,0.57883 -0.13481,0.46436 c -0.13413,-0.17875 -0.25922,-0.36654 -0.44108,-0.49954 -0.45537,-0.33308 -1.02042,-0.49871 -1.58783,-0.47576 -0.0802,0.003 -0.16142,0.01 -0.24381,0.0199 l -4.10292,0.50797 -0.39002,3.59692 0.81127,1.10316 0.31567,2.55074 -0.74534,0.0942 -0.052,0.55604 -5.4831,0.6943 -0.59965,6.10405 3.14197,2.74452 0.79541,6.17789 -0.0332,0.0144 -0.24679,0.16255 -4.58311,0.75278 -0.42372,4.84826 1.29048,1.65127 v 4.9e-4 l 0.99711,6.06936 2.35051,1.57544 4.57025,-0.7508 -0.11002,-1.94366 1.61113,1.69736 3.62812,-0.59619 4.53902,-0.54761 v 0.0243 h 4.63168 v -2.40405 l 1.52092,2.40405 h 3.67721 v -0.0366 c 0.61467,0.40907 1.294,0.67975 2.01798,0.74783 0.90448,0.0851 1.75764,-0.0653 2.5017,-0.4371 l 0.004,0.003 0.31174,0.10605 4.68618,0.73049 0.60263,-1.27562 1.50358,0.2349 0.059,1.37821 4.87055,0.75972 2.59933,-1.56405 -1.60369,-13.10807 -4.16288,-0.64921 1.82076,-5.4147 -1.0516,-0.0956 1.56304,-4.33384 -0.95299,-0.0862 1.81679,-5.56189 -5.7616,-0.52284 -0.23243,0.53325 h -5e-4 l -0.72155,-0.0654 0.79491,-2.97446 -1.6364,-0.057 0.1655,-4.71543 -3.11222,-0.10952 z m -10.9964,7.65421 0.24036,0.94012 2.79953,-0.14967 0.34492,1.00603 3.4393,-0.45346 0.063,-0.54414 0.20022,0.50896 2.33219,-0.30776 -0.60808,1.87528 0.0199,-0.81176 -5.21548,-0.12836 -1.68695,2.02543 -1.72809,-2.11017 -5.11041,-0.12588 -0.18535,0.73841 -0.32955,1.31279 -0.064,-2.00511 -0.951,0.0302 -4.33037,0.13777 0.15115,-1.36087 c 0.12981,-0.0494 0.25702,-0.10437 0.37863,-0.16948 l -0.0154,0.29338 3.33229,0.17593 0.32707,0.0174 1.91196,0.1011 -0.0441,0.20913 1.99026,-0.10654 0.13578,0.008 -0.007,-0.0139 1.62845,-0.0873 0.22945,-0.96539 z m -11.93453,6.36919 -0.24681,1.18097 1.1096,-0.0357 0.19872,6.23042 -1.74195,0.42273 -0.96143,-7.59079 z m 12.38996,4.5177 0.71761,0.79441 c -0.25419,0.023 -0.47322,0.0431 -0.73893,0.0669 z m 2.64343,0.11646 -0.0124,0.50252 c -0.15316,0.0146 -0.28322,0.0272 -0.46487,0.0441 z"
         id="path3344"
         inkscape:connector-curvature="0" />
      <path
         transform="scale(0.26458333)"
         id="path3346"
         d="m 2341.4629,431.9668 -3.584,0.47265 -10.7148,1.41407 -0.031,0.73632 -0.291,-0.69531 -11.5371,1.52735 -0.127,1.02539 -0.3183,-0.9668 -10.0742,1.32812 -1.4532,-4.24609 -2.2617,0.12109 -5.7344,0.30664 -0.1992,-0.61328 -0.1289,0.62891 -9.4375,0.50391 -1.3262,4.34765 c -0.2532,-0.34847 -0.4705,-0.71934 -0.7636,-1.04101 -2.2451,-2.49185 -5.4431,-3.88986 -8.9375,-4.07422 l -14.4785,-0.76563 -0.6622,2.28125 -0.5312,1.83008 c -0.5286,-0.70447 -1.0216,-1.44457 -1.7383,-1.96875 -1.7947,-1.31267 -4.0216,-1.96544 -6.2578,-1.875 -0.316,0.0113 -0.6362,0.0381 -0.9609,0.0781 l -16.17,2.00195 -1.5371,14.17578 3.1973,4.3457 1.2441,10.05469 -2.9375,0.37109 -0.205,2.19141 -21.6094,2.73633 -2.3633,24.05664 12.3828,10.81641 3.1348,24.34765 -0.1309,0.0566 -0.9726,0.64063 -2.7969,13.70117 -5.2031,0.85547 -1.4883,17.0332 3.1465,-0.51562 -4.375,21.42968 9.2636,6.20899 18.0118,-2.95899 -0.4336,-7.66015 6.3496,6.68945 14.3008,-2.34961 17.8886,-2.1582 v 0.0957 h 18.252 v -9.47461 l 5.9941,9.47461 h 14.4922 v -0.14453 c 2.4225,1.6122 5.1018,2.67896 7.9551,2.94727 3.5646,0.3352 6.925,-0.25755 9.8574,-1.72266 l 0.016,0.0117 1.2285,0.41992 18.4688,2.87695 2.375,-5.02539 5.9258,0.92383 0.2324,5.43164 19.1953,2.99414 10.2442,-6.16406 -15.5293,-37.02539 -0.3496,-2.85938 -0.9083,-0.14257 -2.9121,-6.94141 -5.8164,-3.50781 1.8575,-0.97461 8.1074,-24.10742 -4.1446,-0.37696 6.1602,-17.08008 -3.7559,-0.33984 7.1602,-21.91992 -22.7051,-2.06055 -0.9179,2.10156 v 0 l -2.8438,-0.25781 3.1329,-11.72265 -6.4493,-0.22461 0.6524,-18.58399 -12.2656,-0.43164 z"
         style="fill:#000000;fill-opacity:1;stroke:none;stroke-width:1px;stroke-linecap:butt;stroke-linejoin:miter;stroke-opacity:1"
         inkscape:connector-curvature="0" />
      <path
         inkscape:connector-curvature="0"
         id="path3362"
         style="font-style:normal;font-variant:normal;font-weight:900;font-stretch:normal;font-size:20.4399px;line-height:1.25;font-family:Nougat;-inkscape-font-specification:'Nougat, Heavy';font-variant-ligatures:normal;font-variant-caps:normal;font-variant-numeric:normal;font-feature-settings:normal;text-align:start;letter-spacing:0px;word-spacing:0px;writing-mode:lr-tb;text-anchor:start;fill:#f01919;fill-opacity:1;stroke:none;stroke-width:0.272435"
         d="m 595.96677,122.94577 -4.0507,0.51289 -0.0539,0.57963 -5.72108,0.72441 -0.42643,4.33934 2.60999,-0.33047 1.29515,10.06143 4.42653,-0.56049 -1.26638,-10.00143 2.63086,-0.33313 z" />
      <path
         inkscape:connector-curvature="0"
         id="path3364"
         style="font-style:normal;font-variant:normal;font-weight:900;font-stretch:normal;font-size:20.4399px;line-height:1.25;font-family:Nougat;-inkscape-font-specification:'Nougat, Heavy';font-variant-ligatures:normal;font-variant-caps:normal;font-variant-numeric:normal;font-feature-settings:normal;text-align:start;letter-spacing:0px;word-spacing:0px;writing-mode:lr-tb;text-anchor:start;fill:#f01919;fill-opacity:1;stroke:none;stroke-width:0.244596"
         d="m 601.77376,138.06021 -0.41197,-12.91817 -3.985,0.12709 -0.80376,3.84452 0.88766,-0.0283 0.29031,9.10316 z" />
      <path
         inkscape:connector-curvature="0"
         id="path3366"
         style="font-style:normal;font-variant:normal;font-weight:900;font-stretch:normal;font-size:20.4399px;line-height:1.25;font-family:Nougat;-inkscape-font-specification:'Nougat, Heavy';font-variant-ligatures:normal;font-variant-caps:normal;font-variant-numeric:normal;font-feature-settings:normal;text-align:start;letter-spacing:0px;word-spacing:0px;writing-mode:lr-tb;text-anchor:start;fill:#f01919;fill-opacity:1;stroke:none;stroke-width:0.244596"
         d="m 615.91829,138.3129 0.31905,-12.9208 -3.96692,-0.0979 -2.22063,2.66698 -2.2752,-2.778 -4.08025,-0.10075 -0.98533,3.92609 0.88784,0.0219 -0.22157,8.97279 4.04248,0.0998 0.17259,-6.98933 2.37338,2.62922 2.37314,-2.71993 -0.17772,7.19712 z" />
      <path
         inkscape:connector-curvature="0"
         id="path3368"
         style="font-style:normal;font-variant:normal;font-weight:900;font-stretch:normal;font-size:20.4399px;line-height:1.25;font-family:Nougat;-inkscape-font-specification:'Nougat, Heavy';font-variant-ligatures:normal;font-variant-caps:normal;font-variant-numeric:normal;font-feature-settings:normal;text-align:start;letter-spacing:0px;word-spacing:0px;writing-mode:lr-tb;text-anchor:start;fill:#f01919;fill-opacity:1;stroke:none;stroke-width:0.275946"
         d="m 629.09697,124.10823 -4.05504,-0.36782 -0.24307,0.5559 -6.02948,-0.54691 -1.39649,4.30422 0.99784,0.0904 -0.91858,10.12701 8.70455,0.78956 1.49487,-4.44514 -5.24397,-0.47566 0.0808,-0.89169 4.35228,0.39478 1.31555,-3.648 -5.32889,-0.48337 0.0751,-0.828 4.56459,0.41405 z" />
      <path
         inkscape:connector-curvature="0"
         id="path3370"
         style="font-style:normal;font-variant:normal;font-weight:900;font-stretch:normal;font-size:10.4471px;line-height:1.25;font-family:Nougat;-inkscape-font-specification:'Nougat, Heavy';font-variant-ligatures:normal;font-variant-caps:normal;font-variant-numeric:normal;font-feature-settings:normal;text-align:start;letter-spacing:0px;word-spacing:0px;writing-mode:lr-tb;text-anchor:start;fill:#ffffff;fill-opacity:1;stroke:none;stroke-width:0.135232"
         d="m 604.04807,122.56438 -1.11981,-2.37112 q 1.20864,-0.69993 1.28738,-2.19177 0.06,-1.13717 -0.63228,-1.89555 -0.68186,-0.75783 -1.81901,-0.81783 l -3.20277,-0.1695 -0.60101,2.07106 0.49034,0.0258 -0.26595,5.03894 2.23256,0.11805 0.11155,-2.10737 0.84858,2.15803 z m -2.10181,-4.57804 q -0.0303,0.57378 -0.79186,0.5336 l -0.53205,-0.0281 0.0622,-1.17888 0.53205,0.028 q 0.76159,0.0402 0.72965,0.64528 z" />
      <path
         inkscape:connector-curvature="0"
         id="path3372"
         style="font-style:normal;font-variant:normal;font-weight:900;font-stretch:normal;font-size:10.4471px;line-height:1.25;font-family:Nougat;-inkscape-font-specification:'Nougat, Heavy';font-variant-ligatures:normal;font-variant-caps:normal;font-variant-numeric:normal;font-feature-settings:normal;text-align:start;letter-spacing:0px;word-spacing:0px;writing-mode:lr-tb;text-anchor:start;fill:#ffffff;fill-opacity:1;stroke:none;stroke-width:0.135232"
         d="m 611.27162,122.30015 -2.40454,-7.02769 -3.54697,0.18904 -0.59655,1.95681 0.50074,-0.0267 -1.11964,5.29071 2.28468,-0.12168 0.23922,-1.00667 2.02389,-0.10756 0.25108,0.9805 z m -3.16796,-2.70803 -1.11625,0.0596 0.43993,-2.14725 z" />
      <path
         inkscape:connector-curvature="0"
         id="path3374"
         style="font-style:normal;font-variant:normal;font-weight:900;font-stretch:normal;font-size:10.4471px;line-height:1.25;font-family:Nougat;-inkscape-font-specification:'Nougat, Heavy';font-variant-ligatures:normal;font-variant-caps:normal;font-variant-numeric:normal;font-feature-settings:normal;text-align:start;letter-spacing:0px;word-spacing:0px;writing-mode:lr-tb;text-anchor:start;fill:#ffffff;fill-opacity:1;stroke:none;stroke-width:0.135232"
         d="m 618.6678,115.20241 -2.17507,0.28681 -0.13041,3.08368 -1.21603,-2.90596 -1.84354,0.24379 -0.39286,3.17101 -0.98465,-2.9892 -2.17507,0.28681 2.36434,6.89572 2.3304,-0.30744 0.35965,-3.10341 1.14216,2.90519 2.32005,-0.30606 z" />
      <path
         inkscape:connector-curvature="0"
         id="path3376"
         style="font-style:normal;font-variant:normal;font-weight:900;font-stretch:normal;font-size:10.4471px;line-height:1.25;font-family:Nougat;-inkscape-font-specification:'Nougat, Heavy';font-variant-ligatures:normal;font-variant-caps:normal;font-variant-numeric:normal;font-feature-settings:normal;text-align:start;letter-spacing:0px;word-spacing:0px;writing-mode:lr-tb;text-anchor:start;fill:#ffffff;fill-opacity:1;stroke:none;stroke-width:0.135232"
         d="m 623.22965,120.83163 -1.50346,-0.0525 0.1726,-4.91756 -2.2343,-0.0786 -0.56578,2.12312 0.4907,0.0172 -0.17546,5.00108 3.22615,0.11365 z" />
      <path
         inkscape:connector-curvature="0"
         id="path3378"
         style="font-style:normal;font-variant:normal;font-weight:900;font-stretch:normal;font-size:10.4471px;line-height:1.25;font-family:Nougat;-inkscape-font-specification:'Nougat, Heavy';font-variant-ligatures:normal;font-variant-caps:normal;font-variant-numeric:normal;font-feature-settings:normal;text-align:start;letter-spacing:0px;word-spacing:0px;writing-mode:lr-tb;text-anchor:start;fill:#ffffff;fill-opacity:1;stroke:none;stroke-width:0.135068"
         d="m 597.94567,120.1848 q -0.0832,-0.67311 -0.3842,-1.06698 -0.27391,-0.34463 -0.9141,-0.67556 0.83567,-0.6395 0.70383,-1.70611 -0.0947,-0.76633 -0.67264,-1.18906 -0.57794,-0.4227 -1.34426,-0.32798 l -3.65554,0.45172 -0.23074,2.13129 0.48671,-0.0602 0.61948,5.01214 3.57271,-0.44143 q 0.85953,-0.10622 1.36637,-0.68405 0.55607,-0.60493 0.45239,-1.44374 z m -2.69747,-2.59996 q 0.0514,0.41424 -0.61155,0.49615 l -0.48674,0.0601 -0.10239,-0.82844 0.40387,-0.0499 q 0.7456,-0.0922 0.7968,0.32205 z m 0.22073,2.29628 q 0.0614,0.49706 -0.53918,0.57128 l -0.48671,0.0603 -0.11774,-0.95272 0.35207,-0.0435 q 0.73525,-0.0909 0.79156,0.3648 z" />
      <path
         style="color:#000000;font-style:normal;font-variant:normal;font-weight:900;font-stretch:normal;font-size:16.6604px;line-height:1.25;font-family:Nougat;-inkscape-font-specification:'Nougat, Heavy';font-variant-ligatures:normal;font-variant-position:normal;font-variant-caps:normal;font-variant-numeric:normal;font-variant-alternates:normal;font-feature-settings:normal;text-indent:0;text-align:start;text-decoration:none;text-decoration-line:none;text-decoration-style:solid;text-decoration-color:#000000;letter-spacing:0px;word-spacing:0px;text-transform:none;writing-mode:lr-tb;direction:ltr;text-orientation:mixed;dominant-baseline:auto;baseline-shift:baseline;text-anchor:start;white-space:normal;shape-padding:0;clip-rule:nonzero;display:inline;overflow:visible;visibility:visible;opacity:1;isolation:auto;mix-blend-mode:normal;color-interpolation:sRGB;color-interpolation-filters:linearRGB;solid-color:#000000;solid-opacity:1;vector-effect:none;fill:#000000;fill-opacity:1;fill-rule:nonzero;stroke:none;stroke-width:1.85208;stroke-linecap:butt;stroke-linejoin:miter;stroke-miterlimit:4;stroke-dasharray:none;stroke-dashoffset:0;stroke-opacity:1;color-rendering:auto;image-rendering:auto;shape-rendering:auto;text-rendering:auto;enable-background:accumulate"
         d="m 602.44687,137.89862 -0.17778,0.69712 -0.76686,3.00291 -0.33745,-3.68504 -0.92192,0.0842 -4.22661,0.38706 -0.60719,4.11241 -0.62632,-3.81114 -0.91364,0.15038 -4.41576,0.72502 0.26665,1.62367 -1.30069,-1.45417 -4.77904,0.78497 -0.44183,5.0555 1.03508,-0.1695 1.3503,8.22069 5.34593,-0.8785 -0.45577,-2.77503 2.21173,2.48667 4.24471,-0.69711 -1.33014,-8.09667 0.66196,-0.0605 0.73226,7.99692 5.24569,-0.48059 v 0.0284 h 5.41774 v -2.81223 l 1.77921,2.81223 h 4.30155 v -0.0429 c 0.71905,0.47854 1.51418,0.79524 2.36111,0.87488 1.29747,0.12202 2.50743,-0.16322 3.49848,-0.84232 l -0.20309,0.45888 5.48185,0.85422 0.70487,-1.4919 1.75906,0.2744 0.0692,1.6123 5.69733,0.88884 -1.67225,-13.66842 -6.92825,-1.08055 -0.31316,0.56792 -2.21435,4.01423 0.90485,0.14159 -1.19838,2.70836 0.68731,-7.30394 -6.88951,-0.64803 -0.23667,0.68937 -1.50844,4.39456 v -5.64927 h -5.40071 v 1.64641 l -1.04851,-1.64641 z"
         id="path3384"
         inkscape:connector-curvature="0" />
      <path
         inkscape:connector-curvature="0"
         id="path3386"
         style="font-style:normal;font-variant:normal;font-weight:900;font-stretch:normal;font-size:16.6604px;line-height:1.25;font-family:Nougat;-inkscape-font-specification:'Nougat, Heavy';font-variant-ligatures:normal;font-variant-caps:normal;font-variant-numeric:normal;font-feature-settings:normal;text-align:start;letter-spacing:0px;word-spacing:0px;writing-mode:lr-tb;text-anchor:start;fill:#ffb921;fill-opacity:1;stroke:none;stroke-width:0.215659"
         d="m 595.86618,150.99497 -1.84707,-11.24501 -3.50173,0.57518 0.63189,3.84698 -3.08147,-3.44462 -3.56749,0.58598 -0.27577,3.1519 0.77268,-0.12691 1.35019,8.22003 3.51818,-0.57788 -0.82362,-5.01422 3.99656,4.49305 z" />
      <path
         inkscape:connector-curvature="0"
         id="path3388"
         style="font-style:normal;font-variant:normal;font-weight:900;font-stretch:normal;font-size:16.6604px;line-height:1.25;font-family:Nougat;-inkscape-font-specification:'Nougat, Heavy';font-variant-ligatures:normal;font-variant-caps:normal;font-variant-numeric:normal;font-feature-settings:normal;text-align:start;letter-spacing:0px;word-spacing:0px;writing-mode:lr-tb;text-anchor:start;fill:#ffb921;fill-opacity:1;stroke:none;stroke-width:0.215659"
         d="m 601.36586,150.26838 -1.03895,-11.34824 -3.5007,0.32049 -0.50612,3.42581 0.77977,-0.0714 0.73212,7.99686 z" />
      <path
         inkscape:connector-curvature="0"
         id="path3390"
         style="font-style:normal;font-variant:normal;font-weight:900;font-stretch:normal;font-size:16.6604px;line-height:1.25;font-family:Nougat;-inkscape-font-specification:'Nougat, Heavy';font-variant-ligatures:normal;font-variant-caps:normal;font-variant-numeric:normal;font-feature-settings:normal;text-align:start;letter-spacing:0px;word-spacing:0px;writing-mode:lr-tb;text-anchor:start;fill:#ffb921;fill-opacity:1;stroke:none;stroke-width:0.215659"
         d="m 612.81274,150.22039 v -11.3957 h -3.54866 v 3.89853 l -2.4824,-3.89853 h -3.6153 l -0.78303,3.06551 h 0.78303 v 8.33019 h 3.56532 v -5.08141 l 3.21545,5.08141 z" />
      <path
         inkscape:connector-curvature="0"
         id="path3392"
         style="font-style:normal;font-variant:normal;font-weight:900;font-stretch:normal;font-size:16.6604px;line-height:1.25;font-family:Nougat;-inkscape-font-specification:'Nougat, Heavy';font-variant-ligatures:normal;font-variant-caps:normal;font-variant-numeric:normal;font-feature-settings:normal;text-align:start;letter-spacing:0px;word-spacing:0px;writing-mode:lr-tb;text-anchor:start;fill:#ffb921;fill-opacity:1;stroke:none;stroke-width:0.215659"
         d="m 620.64703,147.57701 0.71756,-7.63011 -5.24155,-0.49293 -1.12944,3.29076 2.52126,0.23711 -0.32914,3.4999 q -0.1092,1.16109 -0.97173,1.07998 -0.49761,-0.0468 -0.97283,-0.50983 l -1.16983,3.18656 q 0.97069,0.71044 2.1152,0.81807 1.79142,0.16847 3.03421,-0.76888 1.25938,-0.9358 1.42629,-2.71063 z" />
      <path
         inkscape:connector-curvature="0"
         id="path3394"
         style="font-style:normal;font-variant:normal;font-weight:900;font-stretch:normal;font-size:16.6604px;line-height:1.25;font-family:Nougat;-inkscape-font-specification:'Nougat, Heavy';font-variant-ligatures:normal;font-variant-caps:normal;font-variant-numeric:normal;font-feature-settings:normal;text-align:start;letter-spacing:0px;word-spacing:0px;writing-mode:lr-tb;text-anchor:start;fill:#ffb921;fill-opacity:1;stroke:none;stroke-width:0.215659"
         d="m 632.03938,152.6289 -1.43805,-11.75758 -5.5969,-0.87261 -1.57517,2.85696 0.79016,0.1232 -3.4891,7.88684 3.60507,0.56206 0.70475,-1.49198 3.19352,0.4979 0.0689,1.61261 z m -4.05158,-5.26863 -1.76139,-0.27462 1.39346,-3.20567 z" />
      <path
         style="fill:#000000;fill-opacity:1;stroke:none;stroke-width:0.264583px;stroke-linecap:butt;stroke-linejoin:miter;stroke-opacity:1"
         d="m 583.19843,145.57151 1.34586,1.72254 0.45294,-2.95558 z"
         id="path3396"
         inkscape:connector-curvature="0" />
      <g
         id="g3406"
         transform="translate(206.24271,-15.610417)">
        <path
           inkscape:transform-center-y="1.5190676e-05"
           inkscape:transform-center-x="1.4657571e-05"
           transform="matrix(0.15760094,-0.01838468,0.01838468,0.15760094,68.045828,288.9687)"
           d="m 2318.5752,-686.27555 c -1.7096,-0.98703 0.6201,-17.83353 0.1092,-19.74033 -0.511,-1.90679 -10.9518,-15.33144 -9.9648,-17.04103 0.9871,-1.70958 17.8336,0.62012 19.7404,0.10919 1.9068,-0.51092 15.3314,-10.95175 17.041,-9.96472 1.7096,0.98703 -0.6201,17.83353 -0.1092,19.74033 0.5109,1.9068 10.9518,15.33144 9.9647,17.04103 -0.987,1.70959 -17.8335,-0.62012 -19.7403,-0.10919 -1.9068,0.51092 -15.3314,10.95175 -17.041,9.96472 z"
           inkscape:randomized="0"
           inkscape:rounded="0.1"
           inkscape:flatsided="false"
           sodipodi:arg2="2.8797933"
           sodipodi:arg1="2.0943951"
           sodipodi:r2="13.824791"
           sodipodi:r1="26.925823"
           sodipodi:cy="-709.59399"
           sodipodi:cx="2332.0381"
           sodipodi:sides="4"
           id="path3400"
           style="opacity:0.22;fill:#000000;fill-opacity:1;fill-rule:evenodd;stroke:#000000;stroke-width:4;stroke-miterlimit:4;stroke-dasharray:none;stroke-opacity:1"
           sodipodi:type="star" />
        <path
           sodipodi:type="star"
           style="fill:#ffb921;fill-opacity:1;fill-rule:evenodd;stroke:#000000;stroke-width:4;stroke-miterlimit:4;stroke-dasharray:none;stroke-opacity:1"
           id="path3402"
           sodipodi:sides="4"
           sodipodi:cx="2332.0381"
           sodipodi:cy="-709.59399"
           sodipodi:r1="26.925823"
           sodipodi:r2="13.824791"
           sodipodi:arg1="2.0943951"
           sodipodi:arg2="2.8797933"
           inkscape:flatsided="false"
           inkscape:rounded="0.1"
           inkscape:randomized="0"
           d="m 2318.5752,-686.27555 c -1.7096,-0.98703 0.6201,-17.83353 0.1092,-19.74033 -0.511,-1.90679 -10.9518,-15.33144 -9.9648,-17.04103 0.9871,-1.70958 17.8336,0.62012 19.7404,0.10919 1.9068,-0.51092 15.3314,-10.95175 17.041,-9.96472 1.7096,0.98703 -0.6201,17.83353 -0.1092,19.74033 0.5109,1.9068 10.9518,15.33144 9.9647,17.04103 -0.987,1.70959 -17.8335,-0.62012 -19.7403,-0.10919 -1.9068,0.51092 -15.3314,10.95175 -17.041,9.96472 z"
           transform="matrix(0.15760094,-0.01838468,0.01838468,0.15760094,68.045828,287.91036)"
           inkscape:transform-center-x="1.4657571e-05"
           inkscape:transform-center-y="1.5190676e-05" />
        <circle
           r="0.96188992"
           cy="133.20389"
           cx="422.53156"
           id="circle3404"
           style="fill:#000000;fill-opacity:1;fill-rule:evenodd;stroke-width:0.136822" />
      </g>
      <g
         id="g3414"
         transform="matrix(1.0062884,-1.0062884,1.0062884,1.0062884,62.2972,444.40467)">
        <path
           sodipodi:type="star"
           style="opacity:0.22;fill:#000000;fill-opacity:1;fill-rule:evenodd;stroke:#000000;stroke-width:4;stroke-miterlimit:4;stroke-dasharray:none;stroke-opacity:1"
           id="path3408"
           sodipodi:sides="4"
           sodipodi:cx="2332.0381"
           sodipodi:cy="-709.59399"
           sodipodi:r1="26.925823"
           sodipodi:r2="13.824791"
           sodipodi:arg1="2.0943951"
           sodipodi:arg2="2.8797933"
           inkscape:flatsided="false"
           inkscape:rounded="0.1"
           inkscape:randomized="0"
           d="m 2318.5752,-686.27555 c -1.7096,-0.98703 0.6201,-17.83353 0.1092,-19.74033 -0.511,-1.90679 -10.9518,-15.33144 -9.9648,-17.04103 0.9871,-1.70958 17.8336,0.62012 19.7404,0.10919 1.9068,-0.51092 15.3314,-10.95175 17.041,-9.96472 1.7096,0.98703 -0.6201,17.83353 -0.1092,19.74033 0.5109,1.9068 10.9518,15.33144 9.9647,17.04103 -0.987,1.70959 -17.8335,-0.62012 -19.7403,-0.10919 -1.9068,0.51092 -15.3314,10.95175 -17.041,9.96472 z"
           transform="matrix(0.15760094,-0.01838468,0.01838468,0.15760094,67.388503,289.03443)"
           inkscape:transform-center-x="1.4657571e-05"
           inkscape:transform-center-y="1.5190676e-05" />
        <path
           inkscape:transform-center-y="1.5190676e-05"
           inkscape:transform-center-x="1.4657571e-05"
           transform="matrix(0.15760094,-0.01838468,0.01838468,0.15760094,68.045828,287.91036)"
           d="m 2318.5752,-686.27555 c -1.7096,-0.98703 0.6201,-17.83353 0.1092,-19.74033 -0.511,-1.90679 -10.9518,-15.33144 -9.9648,-17.04103 0.9871,-1.70958 17.8336,0.62012 19.7404,0.10919 1.9068,-0.51092 15.3314,-10.95175 17.041,-9.96472 1.7096,0.98703 -0.6201,17.83353 -0.1092,19.74033 0.5109,1.9068 10.9518,15.33144 9.9647,17.04103 -0.987,1.70959 -17.8335,-0.62012 -19.7403,-0.10919 -1.9068,0.51092 -15.3314,10.95175 -17.041,9.96472 z"
           inkscape:randomized="0"
           inkscape:rounded="0.1"
           inkscape:flatsided="false"
           sodipodi:arg2="2.8797933"
           sodipodi:arg1="2.0943951"
           sodipodi:r2="13.824791"
           sodipodi:r1="26.925823"
           sodipodi:cy="-709.59399"
           sodipodi:cx="2332.0381"
           sodipodi:sides="4"
           id="path3410"
           style="fill:#ffb921;fill-opacity:1;fill-rule:evenodd;stroke:#000000;stroke-width:4;stroke-miterlimit:4;stroke-dasharray:none;stroke-opacity:1"
           sodipodi:type="star" />
        <circle
           style="fill:#000000;fill-opacity:1;fill-rule:evenodd;stroke-width:0.136822"
           id="circle3412"
           cx="422.53156"
           cy="133.20389"
           r="0.96188992" />
      </g>
      <path
         inkscape:connector-curvature="0"
         id="path3469"
         d="m 603.44279,115.20828 0.97055,1.05237 1.00557,-1.21608 c 0,0 3.37932,-0.36248 3.41437,-0.31571 0.0351,0.0468 0.7016,1.0056 0.7016,1.0056 l 3.12203,-0.0935 0.15203,-1.21608 -3.06359,0.29233 c 0,0 -4.53689,0.21047 -4.61875,0.21047 -0.0819,0 -1.68381,0.28064 -1.68381,0.28064 z"
         style="fill:#000000;fill-opacity:1;stroke:none;stroke-width:0.264583px;stroke-linecap:butt;stroke-linejoin:miter;stroke-opacity:1" />
    </g>
    <path
       style="fill:#dc2626;fill-opacity:1;stroke-width:0.707107"
       d="m 2408.4686,514.67176 c -0.665,-5.15304 -1.7395,-13.50574 -2.3877,-18.56155 l -1.1785,-9.19239 -4.8754,0.22939 -4.8754,0.22939 0.4557,-4.82558 c 0.2507,-2.65408 0.4629,-5.78018 0.4716,-6.94691 0.01,-1.16673 0.2621,-2.50892 0.5631,-2.98266 0.3202,-0.5038 4.6452,-1.35433 10.419,-2.04895 7.6812,-0.92408 10.1071,-1.47166 10.9324,-2.46769 0.7667,-0.92537 2.8793,-1.51069 7.6239,-2.1123 3.6097,-0.45773 6.7544,-0.64098 6.9882,-0.40723 0.2337,0.23375 -0.015,4.3337 -0.5528,9.111 l -0.9778,8.686 -4.57,0.56305 c -2.5135,0.30967 -4.733,0.7261 -4.9323,0.92539 -0.2892,0.28917 1.5551,16.34377 4.0208,35.00166 l 0.3368,2.54897 -6.3144,0.80978 c -10.8942,1.39713 -9.7486,2.27676 -11.1472,-8.55937 z"
       id="path951"
       transform="scale(0.26458333)" />
    <path
       style="fill:#dc2626;fill-opacity:1;stroke-width:0.707107"
       d="m 2440.3698,516.49499 c -0.2509,-2.96745 -0.4561,-8.80085 -0.4561,-12.96312 0,-4.16227 -0.2002,-9.48309 -0.4449,-11.82405 -0.3873,-3.70553 -0.616,-4.21153 -1.7677,-3.91035 -1.6487,0.43114 -1.6483,-0.44774 0,-7.95072 l 1.2455,-5.65685 6.8975,-0.59647 c 3.7936,-0.32806 7.091,-0.40297 7.3275,-0.16647 0.5463,0.54634 1.6939,34.18674 1.4315,41.9639 l -0.1972,5.84562 -6.7918,0.32693 -6.7917,0.32694 z"
       id="path953"
       transform="scale(0.26458333)" />
    <path
       style="fill:#dc2626;fill-opacity:1;stroke-width:0.707107"
       d="m 2500.7249,521.9196 c 0,-0.3889 -1.3231,-0.7071 -2.9402,-0.7071 h -2.9403 l 0.4385,-13.25825 0.4385,-13.25826 -4.7463,5.18425 -4.7463,5.18425 -4.2226,-4.77984 c -4.0103,-4.5396 -4.2466,-4.69354 -4.7023,-3.06293 -0.2638,0.9443 -0.5114,6.72853 -0.5502,12.85385 l -0.07,11.13693 h -7.5077 -7.5077 l 0.5197,-16.97057 0.5197,-16.97056 h -1.4973 c -1.8462,0 -1.848,0.31027 0.045,-7.6014 l 1.5648,-6.54073 h 7.5081 7.5081 l 4.1967,5.27795 c 2.3083,2.90288 4.372,5.28936 4.5861,5.3033 0.2141,0.0139 2.2306,-2.21286 4.4811,-4.94846 l 4.0918,-4.9738 7.1862,0.20083 7.1861,0.20084 -0.1886,13.43503 c -0.1037,7.38926 -0.3758,18.28754 -0.6047,24.2184 l -0.4162,10.78338 h -3.8147 c -2.098,0 -3.8146,-0.3182 -3.8146,-0.70711 z"
       id="path955"
       transform="scale(0.26458333)" />
    <path
       style="fill:#dc2626;fill-opacity:1;stroke-width:0.707107"
       d="m 2530.4234,523.85607 c -8.3616,-0.7783 -15.259,-1.456 -15.3277,-1.50599 -0.069,-0.05 0.6434,-8.36089 1.5824,-18.46868 0.9389,-10.10779 1.711,-18.77554 1.7158,-19.26168 0,-0.48613 -0.7868,-0.88388 -1.7591,-0.88388 -0.9723,0 -1.7643,-0.0795 -1.7601,-0.17678 0,-0.0972 1.0933,-3.51786 2.4202,-7.6014 2.0894,-6.43023 2.6329,-7.44944 4.0582,-7.60995 0.9051,-0.10193 5.9413,0.25862 11.1916,0.80123 8.3867,0.86676 9.6474,0.85934 10.3819,-0.061 0.6882,-0.86253 2.041,-0.95724 7.6574,-0.53616 3.9505,0.29618 6.9501,0.84631 7.1269,1.30709 0.1679,0.43761 -0.9214,4.4549 -2.4207,8.92731 l -2.7261,8.13167 -4.1761,-0.0189 c -2.2968,-0.0104 -6.2443,-0.16948 -8.7722,-0.35355 -4.5152,-0.32878 -4.5962,-0.30366 -4.5962,1.4249 0,1.7427 0.091,1.76822 9.4941,2.65877 5.2218,0.49456 9.622,1.02708 9.7783,1.1834 0.1564,0.15631 -0.77,3.1974 -2.0586,6.75797 -2.3255,6.42597 -2.3585,6.4711 -4.475,6.11283 -1.1727,-0.19851 -4.9165,-0.57576 -8.3194,-0.83832 l -6.1872,-0.47738 v 1.77474 c 0,2.15898 0.7044,2.36478 10.3495,3.02353 3.9421,0.26924 7.5605,0.7324 8.0407,1.02922 1.0968,0.67782 -3.9215,16.30952 -5.1904,16.1681 -0.454,-0.0506 -7.6667,-0.72878 -16.0282,-1.50708 z"
       id="path957"
       transform="scale(0.26458333)" />
    <path
       style="fill:#facc15;fill-opacity:1;stroke-width:0.707107"
       d="m 2551.7335,453.59123 c -0.2478,-1.80774 -0.4505,-4.08312 -0.4505,-5.05641 0,-1.07351 -1.2487,-3.23126 -3.1745,-5.48539 -3.6143,-4.23059 -3.4062,-4.56843 2.814,-4.56843 3.4138,0 4.1321,-0.29789 7.6726,-3.18198 2.1485,-1.75009 4.0868,-3.18198 4.3075,-3.18198 0.2207,0 0.4012,1.93011 0.4012,4.28913 0,4.82113 0.5513,6.18539 4.1047,10.15749 2.2881,2.55767 2.3786,2.82159 1.1354,3.30905 -0.743,0.29134 -2.9642,0.55208 -4.936,0.57941 -2.9692,0.0412 -4.0624,0.44641 -6.364,2.35894 -5.4007,4.4879 -5.0098,4.43255 -5.5104,0.78017 z m 8.3378,-6.3219 c 0.6112,-0.61114 1.1112,-1.8612 1.1112,-2.77792 0,-3.97493 -5.0472,-5.17968 -7.0067,-1.67247 -0.9323,1.66866 -0.9145,2.05602 0.1708,3.71231 1.3842,2.11253 4.0116,2.45127 5.7247,0.73808 z"
       id="path997"
       transform="scale(0.26458333)" />
    <path
       style="fill:#facc15;fill-opacity:1;stroke-width:0.707107"
       d="m 2505.422,569.28083 c -1.7904,-0.81243 -2.9495,-1.7686 -2.7669,-2.28257 0.1727,-0.48647 1.0612,-3.03232 1.9744,-5.65745 1.621,-4.66026 2.2779,-5.50366 3.1665,-4.06587 0.7593,1.22869 4.4918,0.80916 5.24,-0.589 0.3816,-0.71285 1.0318,-4.59039 1.4449,-8.61674 0.8678,-8.45594 0.8741,-8.44472 -4.7404,-8.4611 -2.0418,-0.006 -3.7123,-0.24839 -3.7123,-0.53875 0,-0.29035 0.8216,-2.99503 1.8258,-6.0104 1.301,-3.90636 2.1649,-5.48482 3.0052,-5.49058 0.6487,-0.004 5.0592,0.36442 9.8013,0.81971 l 8.6218,0.82782 -0.2971,1.83193 c -0.1634,1.00756 -0.8095,7.4004 -1.4357,14.2063 -0.6262,6.8059 -1.2423,12.47934 -1.3691,12.60764 -0.1268,0.1283 -1.038,-0.29583 -2.025,-0.94252 -2.0169,-1.32154 -4.3241,-0.91625 -5.0137,0.88073 -0.2487,0.64806 -0.6411,3.62802 -0.8719,6.62211 -0.4129,5.35345 -0.4549,5.45081 -2.53,5.86585 -3.7642,0.75283 -7.1724,0.42017 -10.3178,-1.00711 z"
       id="path999"
       transform="scale(0.26458333)" />
    <path
       style="fill:#facc15;fill-opacity:1;stroke-width:0.707107"
       d="m 2460.7734,551.61809 c 0,-14.76971 -0.068,-15.55635 -1.3332,-15.55635 -1.2989,0 -1.2966,-0.14556 0.088,-5.65685 l 1.4206,-5.65686 h 6.5533 6.5533 l 4.8497,7.6014 4.8497,7.6014 0.2007,-7.6014 0.2007,-7.6014 h 6.3401 6.34 v 21.2132 21.21321 h -5.242 -5.2419 l -5.8064,-9.19239 c -3.1935,-5.05581 -6.0849,-9.19239 -6.4253,-9.19239 -0.3404,0 -0.6189,4.13658 -0.6189,9.19239 v 9.19239 h -6.364 -6.3639 z"
       id="path1001"
       transform="scale(0.26458333)" />
    <path
       style="fill:#facc15;fill-opacity:1;stroke-width:0.707107"
       d="m 2440.6922,567.07848 c -0.2956,-1.41362 -2.5727,-26.08262 -2.5529,-27.65798 0,-0.29168 -0.6527,-0.53033 -1.4585,-0.53033 -1.3587,0 -1.4307,-0.27514 -0.9914,-3.79067 0.2604,-2.08487 0.6935,-4.86911 0.9624,-6.18719 l 0.4888,-2.39651 5.9159,-0.53831 c 3.2537,-0.29608 6.0937,-0.36038 6.3112,-0.14289 0.3333,0.33328 4.3444,41.49093 4.0735,41.79842 -0.051,0.0578 -2.8615,0.33279 -6.2459,0.61115 -6.0788,0.49998 -6.1577,0.48584 -6.5031,-1.16569 z"
       id="path1003"
       transform="scale(0.26458333)" />
    <path
       style="fill:#facc15;fill-opacity:1;stroke-width:0.707107"
       d="m 2395.0652,562.03784 c -2.6843,-17.02458 -2.6226,-16.78371 -4.3019,-16.78371 -1.211,0 -1.2907,-0.44279 -0.9231,-5.12653 0.2212,-2.81958 0.6005,-5.32028 0.8427,-5.5571 0.4691,-0.45864 9.7204,-2.04429 11.9272,-2.04429 0.7737,0 3.5996,2.62258 6.8669,6.37294 3.0537,3.50512 5.6758,6.24927 5.827,6.09811 0.1511,-0.15116 -0.2504,-3.3559 -0.8923,-7.12164 -0.6418,-3.76574 -1.0532,-6.94953 -0.914,-7.07509 0.1392,-0.12556 2.9745,-0.68284 6.3008,-1.2384 l 6.0477,-1.0101 3.3329,20.19509 c 1.8332,11.1073 3.3278,20.5567 3.3215,20.99868 -0.01,0.44198 -1.523,1.02166 -3.3703,1.28818 -1.8473,0.26652 -4.0382,0.64619 -4.8687,0.84371 -1.2249,0.29133 -2.9489,-1.25314 -9.1335,-8.18236 -4.193,-4.69781 -7.742,-8.42317 -7.8866,-8.27859 -0.1446,0.14459 0.4193,4.30065 1.2531,9.23568 0.8338,4.93504 1.3655,9.12326 1.1816,9.30715 -0.1839,0.1839 -2.3652,0.64458 -4.8474,1.02374 -2.4822,0.37916 -5.1868,0.84103 -6.0103,1.02638 -1.4322,0.32238 -1.5949,-0.28311 -3.7533,-13.97185 z"
       id="path1005"
       transform="scale(0.26458333)" />
    <path
       style="fill:#facc15;fill-opacity:1;stroke-width:0.707107"
       d="m 2531.651,592.85319 -5.1364,-4.66598 -7.5916,-0.78367 -7.5915,-0.78367 3.5114,-3.88908 c 1.9313,-2.139 4.1538,-4.62542 4.9388,-5.52539 1.1056,-1.26745 1.5892,-3.32227 2.1454,-9.11567 l 0.7181,-7.47937 5.7791,4.98927 5.7791,4.98927 7.1256,0.50518 c 3.9191,0.27785 7.1256,0.64318 7.1256,0.81185 0,0.16867 -2.1902,2.79216 -4.8671,5.82999 l -4.8671,5.52332 -0.5125,7.16039 c -0.2818,3.93822 -0.7168,7.1467 -0.9665,7.12997 -0.2497,-0.0167 -2.7654,-2.13013 -5.5904,-4.69641 z m 0.8126,-8.79992 c 0.9643,-0.43935 2.1497,-1.75581 2.6342,-2.92546 1.0744,-2.5939 -0.095,-5.18378 -3.1008,-6.86494 -1.7268,-0.96596 -2.1275,-0.96596 -3.8544,0 -3.0086,1.68298 -4.1754,4.27053 -3.0982,6.87107 1.3363,3.22606 4.2391,4.36828 7.4192,2.91933 z"
       id="path1007"
       transform="scale(0.26458333)" />
    <path
       style="fill:#facc15;fill-opacity:1;stroke-width:0.707107"
       d="m 2561.6069,575.38739 c -5.1644,-0.83447 -5.924,-1.51699 -6.0315,-5.41965 -0.047,-1.71427 -0.3412,-1.84503 -5.9798,-2.66028 -3.2615,-0.47157 -6.4474,-0.65887 -7.0798,-0.41623 -2.2363,0.85815 -7.1031,-0.45159 -9.3986,-2.52928 l -2.2558,-2.04189 4.8472,-10.83106 c 4.5068,-10.07024 4.7537,-10.87526 3.514,-11.46023 -1.2539,-0.59169 -1.1799,-0.9076 1.2407,-5.3033 1.4157,-2.57078 2.6744,-4.80192 2.7971,-4.95809 0.1227,-0.15618 4.834,0.43612 10.4696,1.3162 l 10.2464,1.60017 0.3685,2.21932 c 0.2027,1.22063 1.3277,10.33338 2.5,20.25055 1.1723,9.91718 2.2429,18.74717 2.3791,19.62222 0.2841,1.82504 0.023,1.84602 -7.6171,0.61155 z m -7.1126,-21.82476 c -1.053,-8.55529 -1.2905,-9.80078 -1.7635,-9.24555 -0.7003,0.82212 -4.9833,10.71046 -4.9833,11.50507 0,0.58217 1.7494,0.97938 5.9,1.33963 1.1677,0.10135 1.2561,-0.27428 0.8468,-3.59915 z"
       id="path1011"
       transform="scale(0.26458333)" />
  </g>
</svg>
