<?xml version="1.0" encoding="UTF-8"?>
<svg width="55.675mm" height="52.329mm" version="1.1" viewBox="0 0 55.675 52.329" xmlns="http://www.w3.org/2000/svg"><defs><filter id="a" x="-.014219" y="-.017278" width="1.0284" height="1.0346" color-interpolation-filters="sRGB"><feGaussianBlur stdDeviation="0.28356887"/></filter></defs><g transform="translate(-625.32 -108.85)"><g transform="translate(47.89)"><g transform="matrix(-.97595 -.23397 -.23397 .97595 1025.8 108.35)" fill-rule="evenodd"><path transform="matrix(.1576 -.018385 .018385 .1576 68.046 288.97)" d="m2318.6-686.28c-1.7096-0.98703 0.6201-17.834 0.1092-19.74-0.511-1.9068-10.952-15.331-9.9648-17.041 0.9871-1.7096 17.834 0.62012 19.74 0.10919 1.9068-0.51092 15.331-10.952 17.041-9.9647s-0.6201 17.834-0.1092 19.74 10.952 15.331 9.9647 17.041c-0.987 1.7096-17.834-0.62012-19.74-0.10919-1.9068 0.51092-15.331 10.952-17.041 9.9647z" opacity=".22" stroke="#000" stroke-width="4"/><path transform="matrix(.1576 -.018385 .018385 .1576 68.046 287.91)" d="m2318.6-686.28c-1.7096-0.98703 0.6201-17.834 0.1092-19.74-0.511-1.9068-10.952-15.331-9.9648-17.041 0.9871-1.7096 17.834 0.62012 19.74 0.10919 1.9068-0.51092 15.331-10.952 17.041-9.9647s-0.6201 17.834-0.1092 19.74 10.952 15.331 9.9647 17.041c-0.987 1.7096-17.834-0.62012-19.74-0.10919-1.9068 0.51092-15.331 10.952-17.041 9.9647z" fill="#ffb921" stroke="#000" stroke-width="4"/><circle cx="422.53" cy="133.2" r=".96189" stroke-width=".13682"/></g><g transform="matrix(.40164 -.021723 .021723 .40164 558.99 55.475)"><g><path d="m113.37 141-4.8643 4.3966-7.5773-1.3332 2.0345 9.0976 10.407-0.0641 10.407 0.0641 2.0345-9.0976-7.5768 1.3332z" fill="#fbbf2d" stroke="#000" stroke-linecap="round" stroke-linejoin="round" stroke-width="3.9688"/><path d="m113.37 141-4.8643 4.3966-7.5773-1.3332 2.0345 9.0976 10.407-0.0641 10.407 0.0641 2.0345-9.0976-7.5768 1.3332z" fill="#fbbf2d"/><path d="m125.82 144.07-4.0762 0.71726-1.5141 8.3328-0.0119 0.0253 3.5677 0.0222z" fill="#eb732a"/></g><ellipse transform="matrix(.41701 -.9089 .87068 .49185 0 0)" cx="-77.71" cy="159.44" rx="2.5687" ry="3.4366" fill="#fff" fill-rule="evenodd" stroke-width=".25416"/></g><path d="m619.05 117.78-0.90938 0.11992-2.7187 0.3588-8e-3 0.18684-0.0738-0.17643-2.9274 0.38754-0.0322 0.26018-0.0807-0.2453-2.5562 0.33699-0.36873-1.0774-0.57388 0.0307-1.455 0.0778-0.0505-0.15561-0.0327 0.15958-2.3946 0.12786-0.33651 1.1032c-0.0643-0.0884-0.11938-0.18253-0.19375-0.26415-0.56966-0.63227-1.3811-0.987-2.2678-1.0338l-3.6737-0.19426-0.16799 0.57883-0.13481 0.46436c-0.13413-0.17875-0.25922-0.36654-0.44108-0.49954-0.45537-0.33308-1.0204-0.49871-1.5878-0.47576-0.0802 3e-3 -0.16142 0.01-0.24381 0.0199l-4.1029 0.50797-0.39002 3.5969 0.81127 1.1032 0.31567 2.5507-0.74534 0.0942-0.052 0.55604-5.4831 0.6943-0.59965 6.104 3.142 2.7445 0.79541 6.1779-0.0332 0.0144-0.24679 0.16255-4.5831 0.75278-0.42372 4.8483 1.2905 1.6513v4.9e-4l0.99711 6.0694 2.3505 1.5754 4.5702-0.7508-0.11002-1.9437 1.6111 1.6974 3.6281-0.59619 4.539-0.54761v0.0243h4.6317v-2.404l1.5209 2.404h3.6772v-0.0366c0.61467 0.40907 1.294 0.67975 2.018 0.74783 0.90448 0.0851 1.7576-0.0653 2.5017-0.4371l4e-3 3e-3 0.31174 0.10605 4.6862 0.73049 0.60263-1.2756 1.5036 0.2349 0.059 1.3782 4.8706 0.75972 2.5993-1.564-1.6037-13.108-4.1629-0.64921 1.8208-5.4147-1.0516-0.0956 1.563-4.3338-0.95299-0.0862 1.8168-5.5619-5.7616-0.52284-0.23243 0.53325h-5e-4l-0.72155-0.0654 0.79491-2.9745-1.6364-0.057 0.1655-4.7154-3.1122-0.10952zm-10.996 7.6542 0.24036 0.94012 2.7995-0.14967 0.34492 1.006 3.4393-0.45346 0.063-0.54414 0.20022 0.50896 2.3322-0.30776-0.60808 1.8753 0.0199-0.81176-5.2155-0.12836-1.687 2.0254-1.7281-2.1102-5.1104-0.12588-0.18535 0.73841-0.32955 1.3128-0.064-2.0051-0.951 0.0302-4.3304 0.13777 0.15115-1.3609c0.12981-0.0494 0.25702-0.10437 0.37863-0.16948l-0.0154 0.29338 3.3323 0.17593 0.32707 0.0174 1.912 0.1011-0.0441 0.20913 1.9903-0.10654 0.13578 8e-3 -7e-3 -0.0139 1.6284-0.0873 0.22945-0.96539zm-11.935 6.3692-0.24681 1.181 1.1096-0.0357 0.19872 6.2304-1.742 0.42273-0.96143-7.5908zm12.39 4.5177 0.71761 0.79441c-0.25419 0.023-0.47322 0.0431-0.73893 0.0669zm2.6434 0.11646-0.0124 0.50252c-0.15316 0.0146-0.28322 0.0272-0.46487 0.0441z" filter="url(#a)" opacity=".22"/><path transform="scale(.26458)" d="m2341.5 431.97-3.584 0.47265-10.715 1.4141-0.031 0.73632-0.291-0.69531-11.537 1.5274-0.127 1.0254-0.3183-0.9668-10.074 1.3281-1.4532-4.2461-2.2617 0.12109-5.7344 0.30664-0.1992-0.61328-0.1289 0.62891-9.4375 0.50391-1.3262 4.3476c-0.2532-0.34847-0.4705-0.71934-0.7636-1.041-2.2451-2.4918-5.4431-3.8899-8.9375-4.0742l-14.478-0.76563-0.6622 2.2812-0.5312 1.8301c-0.5286-0.70447-1.0216-1.4446-1.7383-1.9688-1.7947-1.3127-4.0216-1.9654-6.2578-1.875-0.316 0.0113-0.6362 0.0381-0.9609 0.0781l-16.17 2.002-1.5371 14.176 3.1973 4.3457 1.2441 10.055-2.9375 0.37109-0.205 2.1914-21.609 2.7363-2.3633 24.057 12.383 10.816 3.1348 24.348-0.1309 0.0566-0.9726 0.64063-2.7969 13.701-5.2031 0.85547-1.4883 17.033 3.1465-0.51562-4.375 21.43 9.2636 6.209 18.012-2.959-0.4336-7.6602 6.3496 6.6894 14.301-2.3496 17.889-2.1582v0.0957h18.252v-9.4746l5.9941 9.4746h14.492v-0.14453c2.4225 1.6122 5.1018 2.679 7.9551 2.9473 3.5646 0.3352 6.925-0.25755 9.8574-1.7227l0.016 0.0117 1.2285 0.41992 18.469 2.877 2.375-5.0254 5.9258 0.92383 0.2324 5.4316 19.195 2.9941 10.244-6.1641-15.529-37.025-0.3496-2.8594-0.9083-0.14257-2.9121-6.9414-5.8164-3.5078 1.8575-0.97461 8.1074-24.107-4.1446-0.37696 6.1602-17.08-3.7559-0.33984 7.1602-21.92-22.705-2.0606-0.9179 2.1016-2.8438-0.25781 3.1329-11.723-6.4493-0.22461 0.6524-18.584-12.266-0.43164z"/><g fill="#f01919"><path d="m595.97 122.95-4.0507 0.51289-0.0539 0.57963-5.7211 0.72441-0.42643 4.3393 2.61-0.33047 1.2952 10.061 4.4265-0.56049-1.2664-10.001 2.6309-0.33313z" style="font-feature-settings:normal;font-variant-caps:normal;font-variant-ligatures:normal;font-variant-numeric:normal"/><path d="m601.77 138.06-0.41197-12.918-3.985 0.12709-0.80376 3.8445 0.88766-0.0283 0.29031 9.1032z" style="font-feature-settings:normal;font-variant-caps:normal;font-variant-ligatures:normal;font-variant-numeric:normal"/><path d="m615.92 138.31 0.31905-12.921-3.9669-0.0979-2.2206 2.667-2.2752-2.778-4.0802-0.10075-0.98533 3.9261 0.88784 0.0219-0.22157 8.9728 4.0425 0.0998 0.17259-6.9893 2.3734 2.6292 2.3731-2.7199-0.17772 7.1971z" style="font-feature-settings:normal;font-variant-caps:normal;font-variant-ligatures:normal;font-variant-numeric:normal"/><path d="m629.1 124.11-4.055-0.36782-0.24307 0.5559-6.0295-0.54691-1.3965 4.3042 0.99784 0.0904-0.91858 10.127 8.7046 0.78956 1.4949-4.4451-5.244-0.47566 0.0808-0.89169 4.3523 0.39478 1.3156-3.648-5.3289-0.48337 0.0751-0.828 4.5646 0.41405z" style="font-feature-settings:normal;font-variant-caps:normal;font-variant-ligatures:normal;font-variant-numeric:normal"/></g><g fill="#fff"><path d="m604.05 122.56-1.1198-2.3711q1.2086-0.69993 1.2874-2.1918 0.06-1.1372-0.63228-1.8956-0.68186-0.75783-1.819-0.81783l-3.2028-0.1695-0.60101 2.0711 0.49034 0.0258-0.26595 5.0389 2.2326 0.11805 0.11155-2.1074 0.84858 2.158zm-2.1018-4.578q-0.0303 0.57378-0.79186 0.5336l-0.53205-0.0281 0.0622-1.1789 0.53205 0.028q0.76159 0.0402 0.72965 0.64528z" style="font-feature-settings:normal;font-variant-caps:normal;font-variant-ligatures:normal;font-variant-numeric:normal"/><path d="m611.27 122.3-2.4045-7.0277-3.547 0.18904-0.59655 1.9568 0.50074-0.0267-1.1196 5.2907 2.2847-0.12168 0.23922-1.0067 2.0239-0.10756 0.25108 0.9805zm-3.168-2.708-1.1162 0.0596 0.43993-2.1472z" style="font-feature-settings:normal;font-variant-caps:normal;font-variant-ligatures:normal;font-variant-numeric:normal"/><path d="m618.67 115.2-2.1751 0.28681-0.13041 3.0837-1.216-2.906-1.8435 0.24379-0.39286 3.171-0.98465-2.9892-2.1751 0.28681 2.3643 6.8957 2.3304-0.30744 0.35965-3.1034 1.1422 2.9052 2.32-0.30606z" style="font-feature-settings:normal;font-variant-caps:normal;font-variant-ligatures:normal;font-variant-numeric:normal"/><path d="m623.23 120.83-1.5035-0.0525 0.1726-4.9176-2.2343-0.0786-0.56578 2.1231 0.4907 0.0172-0.17546 5.0011 3.2262 0.11365z" style="font-feature-settings:normal;font-variant-caps:normal;font-variant-ligatures:normal;font-variant-numeric:normal"/><path d="m597.95 120.18q-0.0832-0.67311-0.3842-1.067-0.27391-0.34463-0.9141-0.67556 0.83567-0.6395 0.70383-1.7061-0.0947-0.76633-0.67264-1.1891-0.57794-0.4227-1.3443-0.32798l-3.6555 0.45172-0.23074 2.1313 0.48671-0.0602 0.61948 5.0121 3.5727-0.44143q0.85953-0.10622 1.3664-0.68405 0.55607-0.60493 0.45239-1.4437zm-2.6975-2.6q0.0514 0.41424-0.61155 0.49615l-0.48674 0.0601-0.10239-0.82844 0.40387-0.0499q0.7456-0.0922 0.7968 0.32205zm0.22073 2.2963q0.0614 0.49706-0.53918 0.57128l-0.48671 0.0603-0.11774-0.95272 0.35207-0.0435q0.73525-0.0909 0.79156 0.3648z" style="font-feature-settings:normal;font-variant-caps:normal;font-variant-ligatures:normal;font-variant-numeric:normal"/></g><path d="m602.45 137.9-0.17778 0.69712-0.76686 3.0029-0.33745-3.685-0.92192 0.0842-4.2266 0.38706-0.60719 4.1124-0.62632-3.8111-0.91364 0.15038-4.4158 0.72502 0.26665 1.6237-1.3007-1.4542-4.779 0.78497-0.44183 5.0555 1.0351-0.1695 1.3503 8.2207 5.3459-0.8785-0.45577-2.775 2.2117 2.4867 4.2447-0.69711-1.3301-8.0967 0.66196-0.0605 0.73226 7.9969 5.2457-0.48059v0.0284h5.4177v-2.8122l1.7792 2.8122h4.3016v-0.0429c0.71905 0.47854 1.5142 0.79524 2.3611 0.87488 1.2975 0.12202 2.5074-0.16322 3.4985-0.84232l-0.20309 0.45888 5.4818 0.85422 0.70487-1.4919 1.7591 0.2744 0.0692 1.6123 5.6973 0.88884-1.6722-13.668-6.9282-1.0806-0.31316 0.56792-2.2144 4.0142 0.90485 0.14159-1.1984 2.7084 0.68731-7.3039-6.8895-0.64803-0.23667 0.68937-1.5084 4.3946v-5.6493h-5.4007v1.6464l-1.0485-1.6464z" color="#000000" color-rendering="auto" dominant-baseline="auto" image-rendering="auto" shape-rendering="auto" solid-color="#000000" style="font-feature-settings:normal;font-variant-alternates:normal;font-variant-caps:normal;font-variant-ligatures:normal;font-variant-numeric:normal;font-variant-position:normal;isolation:auto;mix-blend-mode:normal;shape-padding:0;text-decoration-color:#000000;text-decoration-line:none;text-decoration-style:solid;text-indent:0;text-orientation:mixed;text-transform:none;white-space:normal"/><g fill="#ffb921"><path d="m595.87 150.99-1.8471-11.245-3.5017 0.57518 0.63189 3.847-3.0815-3.4446-3.5675 0.58598-0.27577 3.1519 0.77268-0.12691 1.3502 8.22 3.5182-0.57788-0.82362-5.0142 3.9966 4.493z" style="font-feature-settings:normal;font-variant-caps:normal;font-variant-ligatures:normal;font-variant-numeric:normal"/><path d="m601.37 150.27-1.039-11.348-3.5007 0.32049-0.50612 3.4258 0.77977-0.0714 0.73212 7.9969z" style="font-feature-settings:normal;font-variant-caps:normal;font-variant-ligatures:normal;font-variant-numeric:normal"/><path d="m612.81 150.22v-11.396h-3.5487v3.8985l-2.4824-3.8985h-3.6153l-0.78303 3.0655h0.78303v8.3302h3.5653v-5.0814l3.2154 5.0814z" style="font-feature-settings:normal;font-variant-caps:normal;font-variant-ligatures:normal;font-variant-numeric:normal"/><path d="m620.65 147.58 0.71756-7.6301-5.2416-0.49293-1.1294 3.2908 2.5213 0.23711-0.32914 3.4999q-0.1092 1.1611-0.97173 1.08-0.49761-0.0468-0.97283-0.50983l-1.1698 3.1866q0.97069 0.71044 2.1152 0.81807 1.7914 0.16847 3.0342-0.76888 1.2594-0.9358 1.4263-2.7106z" style="font-feature-settings:normal;font-variant-caps:normal;font-variant-ligatures:normal;font-variant-numeric:normal"/><path d="m632.04 152.63-1.438-11.758-5.5969-0.87261-1.5752 2.857 0.79016 0.1232-3.4891 7.8868 3.6051 0.56206 0.70475-1.492 3.1935 0.4979 0.0689 1.6126zm-4.0516-5.2686-1.7614-0.27462 1.3935-3.2057z" style="font-feature-settings:normal;font-variant-caps:normal;font-variant-ligatures:normal;font-variant-numeric:normal"/></g><path d="m583.2 145.57 1.3459 1.7225 0.45294-2.9556z"/><g transform="translate(206.24 -15.61)" fill-rule="evenodd"><path transform="matrix(.1576 -.018385 .018385 .1576 68.046 288.97)" d="m2318.6-686.28c-1.7096-0.98703 0.6201-17.834 0.1092-19.74-0.511-1.9068-10.952-15.331-9.9648-17.041 0.9871-1.7096 17.834 0.62012 19.74 0.10919 1.9068-0.51092 15.331-10.952 17.041-9.9647s-0.6201 17.834-0.1092 19.74 10.952 15.331 9.9647 17.041c-0.987 1.7096-17.834-0.62012-19.74-0.10919-1.9068 0.51092-15.331 10.952-17.041 9.9647z" opacity=".22" stroke="#000" stroke-width="4"/><path transform="matrix(.1576 -.018385 .018385 .1576 68.046 287.91)" d="m2318.6-686.28c-1.7096-0.98703 0.6201-17.834 0.1092-19.74-0.511-1.9068-10.952-15.331-9.9648-17.041 0.9871-1.7096 17.834 0.62012 19.74 0.10919 1.9068-0.51092 15.331-10.952 17.041-9.9647s-0.6201 17.834-0.1092 19.74 10.952 15.331 9.9647 17.041c-0.987 1.7096-17.834-0.62012-19.74-0.10919-1.9068 0.51092-15.331 10.952-17.041 9.9647z" fill="#ffb921" stroke="#000" stroke-width="4"/><circle cx="422.53" cy="133.2" r=".96189" stroke-width=".13682"/></g><g transform="matrix(1.0063 -1.0063 1.0063 1.0063 62.297 444.4)" fill-rule="evenodd"><path transform="matrix(.1576 -.018385 .018385 .1576 67.389 289.03)" d="m2318.6-686.28c-1.7096-0.98703 0.6201-17.834 0.1092-19.74-0.511-1.9068-10.952-15.331-9.9648-17.041 0.9871-1.7096 17.834 0.62012 19.74 0.10919 1.9068-0.51092 15.331-10.952 17.041-9.9647s-0.6201 17.834-0.1092 19.74 10.952 15.331 9.9647 17.041c-0.987 1.7096-17.834-0.62012-19.74-0.10919-1.9068 0.51092-15.331 10.952-17.041 9.9647z" opacity=".22" stroke="#000" stroke-width="4"/><path transform="matrix(.1576 -.018385 .018385 .1576 68.046 287.91)" d="m2318.6-686.28c-1.7096-0.98703 0.6201-17.834 0.1092-19.74-0.511-1.9068-10.952-15.331-9.9648-17.041 0.9871-1.7096 17.834 0.62012 19.74 0.10919 1.9068-0.51092 15.331-10.952 17.041-9.9647s-0.6201 17.834-0.1092 19.74 10.952 15.331 9.9647 17.041c-0.987 1.7096-17.834-0.62012-19.74-0.10919-1.9068 0.51092-15.331 10.952-17.041 9.9647z" fill="#ffb921" stroke="#000" stroke-width="4"/><circle cx="422.53" cy="133.2" r=".96189" stroke-width=".13682"/></g><path d="m603.44 115.21 0.97055 1.0524 1.0056-1.2161s3.3793-0.36248 3.4144-0.31571c0.0351 0.0468 0.7016 1.0056 0.7016 1.0056l3.122-0.0935 0.15203-1.2161-3.0636 0.29233s-4.5369 0.21047-4.6188 0.21047c-0.0819 0-1.6838 0.28064-1.6838 0.28064z"/></g><g fill="#dc2626" stroke-width=".70711"><path transform="scale(.26458)" d="m2408.5 514.67c-0.665-5.153-1.7395-13.506-2.3877-18.562l-1.1785-9.1924-9.7508 0.45878 0.4557-4.8256c0.2507-2.6541 0.4629-5.7802 0.4716-6.9469 0.01-1.1667 0.2621-2.5089 0.5631-2.9827 0.3202-0.5038 4.6452-1.3543 10.419-2.049 7.6812-0.92408 10.107-1.4717 10.932-2.4677 0.7667-0.92537 2.8793-1.5107 7.6239-2.1123 3.6097-0.45773 6.7544-0.64098 6.9882-0.40723 0.2337 0.23375-0.015 4.3337-0.5528 9.111l-0.9778 8.686-4.57 0.56305c-2.5135 0.30967-4.733 0.7261-4.9323 0.92539-0.2892 0.28917 1.5551 16.344 4.0208 35.002l0.3368 2.549-6.3144 0.80978c-10.894 1.3971-9.7486 2.2768-11.147-8.5594z"/><path transform="scale(.26458)" d="m2440.4 516.49c-0.2509-2.9674-0.4561-8.8008-0.4561-12.963s-0.2002-9.4831-0.4449-11.824c-0.3873-3.7055-0.616-4.2115-1.7677-3.9104-1.6487 0.43114-1.6483-0.44774 0-7.9507l1.2455-5.6568 6.8975-0.59647c3.7936-0.32806 7.091-0.40297 7.3275-0.16647 0.5463 0.54634 1.6939 34.187 1.4315 41.964l-0.1972 5.8456-13.584 0.65387z"/><path transform="scale(.26458)" d="m2500.7 521.92c0-0.3889-1.3231-0.7071-2.9402-0.7071h-2.9403l0.877-26.517-9.4926 10.368-4.2226-4.7798c-4.0103-4.5396-4.2466-4.6935-4.7023-3.0629-0.2638 0.9443-0.5114 6.7285-0.5502 12.854l-0.07 11.137h-15.015l0.5197-16.971 0.5197-16.971h-1.4973c-1.8462 0-1.848 0.31027 0.045-7.6014l1.5648-6.5407h15.016l4.1967 5.278c2.3083 2.9029 4.372 5.2894 4.5861 5.3033 0.2141 0.0139 2.2306-2.2129 4.4811-4.9485l4.0918-4.9738 14.372 0.40167-0.1886 13.435c-0.1037 7.3893-0.3758 18.288-0.6047 24.218l-0.4162 10.783h-3.8147c-2.098 0-3.8146-0.3182-3.8146-0.70711z"/><path transform="scale(.26458)" d="m2530.4 523.86c-8.3616-0.7783-15.259-1.456-15.328-1.506-0.069-0.05 0.6434-8.3609 1.5824-18.469 0.9389-10.108 1.711-18.776 1.7158-19.262 0-0.48613-0.7868-0.88388-1.7591-0.88388s-1.7643-0.0795-1.7601-0.17678c0-0.0972 1.0933-3.5179 2.4202-7.6014 2.0894-6.4302 2.6329-7.4494 4.0582-7.61 0.9051-0.10193 5.9413 0.25862 11.192 0.80123 8.3867 0.86676 9.6474 0.85934 10.382-0.061 0.6882-0.86253 2.041-0.95724 7.6574-0.53616 3.9505 0.29618 6.9501 0.84631 7.1269 1.3071 0.1679 0.43761-0.9214 4.4549-2.4207 8.9273l-2.7261 8.1317-4.1761-0.0189c-2.2968-0.0104-6.2443-0.16948-8.7722-0.35355-4.5152-0.32878-4.5962-0.30366-4.5962 1.4249 0 1.7427 0.091 1.7682 9.4941 2.6588 5.2218 0.49456 9.622 1.0271 9.7783 1.1834 0.1564 0.15631-0.77 3.1974-2.0586 6.758-2.3255 6.426-2.3585 6.4711-4.475 6.1128-1.1727-0.19851-4.9165-0.57576-8.3194-0.83832l-6.1872-0.47738v1.7747c0 2.159 0.7044 2.3648 10.35 3.0235 3.9421 0.26924 7.5605 0.7324 8.0407 1.0292 1.0968 0.67782-3.9215 16.31-5.1904 16.168-0.454-0.0506-7.6667-0.72878-16.028-1.5071z"/></g><g fill="#facc15" stroke-width=".70711"><path transform="scale(.26458)" d="m2551.7 453.59c-0.2478-1.8077-0.4505-4.0831-0.4505-5.0564 0-1.0735-1.2487-3.2313-3.1745-5.4854-3.6143-4.2306-3.4062-4.5684 2.814-4.5684 3.4138 0 4.1321-0.29789 7.6726-3.182 2.1485-1.7501 4.0868-3.182 4.3075-3.182s0.4012 1.9301 0.4012 4.2891c0 4.8211 0.5513 6.1854 4.1047 10.157 2.2881 2.5577 2.3786 2.8216 1.1354 3.309-0.743 0.29134-2.9642 0.55208-4.936 0.57941-2.9692 0.0412-4.0624 0.44641-6.364 2.3589-5.4007 4.4879-5.0098 4.4326-5.5104 0.78017zm8.3378-6.3219c0.6112-0.61114 1.1112-1.8612 1.1112-2.7779 0-3.9749-5.0472-5.1797-7.0067-1.6725-0.9323 1.6687-0.9145 2.056 0.1708 3.7123 1.3842 2.1125 4.0116 2.4513 5.7247 0.73808z"/><path transform="scale(.26458)" d="m2505.4 569.28c-1.7904-0.81243-2.9495-1.7686-2.7669-2.2826 0.1727-0.48647 1.0612-3.0323 1.9744-5.6574 1.621-4.6603 2.2779-5.5037 3.1665-4.0659 0.7593 1.2287 4.4918 0.80916 5.24-0.589 0.3816-0.71285 1.0318-4.5904 1.4449-8.6167 0.8678-8.4559 0.8741-8.4447-4.7404-8.4611-2.0418-6e-3 -3.7123-0.24839-3.7123-0.53875 0-0.29035 0.8216-2.995 1.8258-6.0104 1.301-3.9064 2.1649-5.4848 3.0052-5.4906 0.6487-4e-3 5.0592 0.36442 9.8013 0.81971l8.6218 0.82782-0.2971 1.8319c-0.1634 1.0076-0.8095 7.4004-1.4357 14.206s-1.2423 12.479-1.3691 12.608-1.038-0.29583-2.025-0.94252c-2.0169-1.3215-4.3241-0.91625-5.0137 0.88073-0.2487 0.64806-0.6411 3.628-0.8719 6.6221-0.4129 5.3534-0.4549 5.4508-2.53 5.8658-3.7642 0.75283-7.1724 0.42017-10.318-1.0071z"/><path transform="scale(.26458)" d="m2460.8 551.62c0-14.77-0.068-15.556-1.3332-15.556-1.2989 0-1.2966-0.14556 0.088-5.6568l1.4206-5.6569h13.107l9.6994 15.203 0.4014-15.203h12.68v42.426h-10.484l-5.8064-9.1924c-3.1935-5.0558-6.0849-9.1924-6.4253-9.1924s-0.6189 4.1366-0.6189 9.1924v9.1924h-12.728z"/><path transform="scale(.26458)" d="m2440.7 567.08c-0.2956-1.4136-2.5727-26.083-2.5529-27.658 0-0.29168-0.6527-0.53033-1.4585-0.53033-1.3587 0-1.4307-0.27514-0.9914-3.7907 0.2604-2.0849 0.6935-4.8691 0.9624-6.1872l0.4888-2.3965 5.9159-0.53831c3.2537-0.29608 6.0937-0.36038 6.3112-0.14289 0.3333 0.33328 4.3444 41.491 4.0735 41.798-0.051 0.0578-2.8615 0.33279-6.2459 0.61115-6.0788 0.49998-6.1577 0.48584-6.5031-1.1657z"/><path transform="scale(.26458)" d="m2395.1 562.04c-2.6843-17.025-2.6226-16.784-4.3019-16.784-1.211 0-1.2907-0.44279-0.9231-5.1265 0.2212-2.8196 0.6005-5.3203 0.8427-5.5571 0.4691-0.45864 9.7204-2.0443 11.927-2.0443 0.7737 0 3.5996 2.6226 6.8669 6.3729 3.0537 3.5051 5.6758 6.2493 5.827 6.0981 0.1511-0.15116-0.2504-3.3559-0.8923-7.1216-0.6418-3.7657-1.0532-6.9495-0.914-7.0751s2.9745-0.68284 6.3008-1.2384l6.0477-1.0101 3.3329 20.195c1.8332 11.107 3.3278 20.557 3.3215 20.999-0.01 0.44198-1.523 1.0217-3.3703 1.2882s-4.0382 0.64619-4.8687 0.84371c-1.2249 0.29133-2.9489-1.2531-9.1335-8.1824-4.193-4.6978-7.742-8.4232-7.8866-8.2786-0.1446 0.14459 0.4193 4.3006 1.2531 9.2357 0.8338 4.935 1.3655 9.1233 1.1816 9.3072-0.1839 0.1839-2.3652 0.64458-4.8474 1.0237s-5.1868 0.84103-6.0103 1.0264c-1.4322 0.32238-1.5949-0.28311-3.7533-13.972z"/><path transform="scale(.26458)" d="m2531.7 592.85-5.1364-4.666-15.183-1.5673 3.5114-3.8891c1.9313-2.139 4.1538-4.6254 4.9388-5.5254 1.1056-1.2674 1.5892-3.3223 2.1454-9.1157l0.7181-7.4794 11.558 9.9785 7.1256 0.50518c3.9191 0.27785 7.1256 0.64318 7.1256 0.81185s-2.1902 2.7922-4.8671 5.83l-4.8671 5.5233-0.5125 7.1604c-0.2818 3.9382-0.7168 7.1467-0.9665 7.13-0.2497-0.0167-2.7654-2.1301-5.5904-4.6964zm0.8126-8.7999c0.9643-0.43935 2.1497-1.7558 2.6342-2.9255 1.0744-2.5939-0.095-5.1838-3.1008-6.8649-1.7268-0.96596-2.1275-0.96596-3.8544 0-3.0086 1.683-4.1754 4.2705-3.0982 6.8711 1.3363 3.2261 4.2391 4.3683 7.4192 2.9193z"/><path transform="scale(.26458)" d="m2561.6 575.39c-5.1644-0.83447-5.924-1.517-6.0315-5.4196-0.047-1.7143-0.3412-1.845-5.9798-2.6603-3.2615-0.47157-6.4474-0.65887-7.0798-0.41623-2.2363 0.85815-7.1031-0.45159-9.3986-2.5293l-2.2558-2.0419 4.8472-10.831c4.5068-10.07 4.7537-10.875 3.514-11.46-1.2539-0.59169-1.1799-0.9076 1.2407-5.3033 1.4157-2.5708 2.6744-4.8019 2.7971-4.9581 0.1227-0.15618 4.834 0.43612 10.47 1.3162l10.246 1.6002 0.3685 2.2193c0.2027 1.2206 1.3277 10.333 2.5 20.251 1.1723 9.9172 2.2429 18.747 2.3791 19.622 0.2841 1.825 0.023 1.846-7.6171 0.61155zm-7.1126-21.825c-1.053-8.5553-1.2905-9.8008-1.7635-9.2456-0.7003 0.82212-4.9833 10.71-4.9833 11.505 0 0.58217 1.7494 0.97938 5.9 1.3396 1.1677 0.10135 1.2561-0.27428 0.8468-3.5992z"/></g></g></svg>
