<?xml version="1.0" encoding="UTF-8" standalone="no"?>
<svg
   xmlns:dc="http://purl.org/dc/elements/1.1/"
   xmlns:cc="http://creativecommons.org/ns#"
   xmlns:rdf="http://www.w3.org/1999/02/22-rdf-syntax-ns#"
   xmlns:svg="http://www.w3.org/2000/svg"
   xmlns="http://www.w3.org/2000/svg"
   xmlns:sodipodi="http://sodipodi.sourceforge.net/DTD/sodipodi-0.dtd"
   xmlns:inkscape="http://www.inkscape.org/namespaces/inkscape"
   width="12.250352mm"
   height="12.250352mm"
   viewBox="0 0 12.250352 12.250352"
   version="1.1"
   id="svg8"
   inkscape:version="1.0.1 (3bc2e813f5, 2020-09-07)"
   sodipodi:docname="shuriken.svg">
  <defs
     id="defs2" />
  <sodipodi:namedview
     id="base"
     pagecolor="#ffffff"
     bordercolor="#666666"
     borderopacity="1.0"
     inkscape:pageopacity="0.0"
     inkscape:pageshadow="2"
     inkscape:zoom="1"
     inkscape:cx="204.29812"
     inkscape:cy="199.95645"
     inkscape:document-units="px"
     inkscape:current-layer="layer1"
     showgrid="false"
     showborder="false"
     inkscape:snap-global="false"
     inkscape:window-width="1920"
     inkscape:window-height="1057"
     inkscape:window-x="-8"
     inkscape:window-y="-8"
     inkscape:window-maximized="1"
     inkscape:snap-intersection-paths="true"
     inkscape:object-paths="true"
     inkscape:snap-smooth-nodes="true"
     showguides="true"
     inkscape:guide-bbox="true"
     inkscape:snap-object-midpoints="true"
     inkscape:snap-center="true"
     inkscape:document-rotation="0"
     fit-margin-top="0"
     fit-margin-left="0"
     fit-margin-right="0"
     fit-margin-bottom="0">
    <inkscape:grid
       type="axonomgrid"
       id="grid815"
       units="mm"
       empspacing="5"
       originx="-489.46053"
       originy="-71.4616" />
    <sodipodi:guide
       position="-510.89178,-91.447425"
       orientation="1,0"
       id="guide863"
       inkscape:locked="false" />
  </sodipodi:namedview>
  <metadata
     id="metadata5">
    <rdf:RDF>
      <cc:Work
         rdf:about="">
        <dc:format>image/svg+xml</dc:format>
        <dc:type
           rdf:resource="http://purl.org/dc/dcmitype/StillImage" />
        <dc:title></dc:title>
      </cc:Work>
    </rdf:RDF>
  </metadata>
  <g
     inkscape:label="Layer 1"
     inkscape:groupmode="layer"
     id="layer1"
     transform="translate(-489.46051,-71.461597)">
    <g
       id="g3477"
       transform="matrix(1.0062884,-1.0062884,1.0062884,1.0062884,-63.64447,368.73384)"
       inkscape:export-xdpi="10367.051"
       inkscape:export-ydpi="10367.051">
      <path
         inkscape:transform-center-y="1.5190676e-05"
         inkscape:transform-center-x="1.4657571e-05"
         transform="matrix(0.15760094,-0.01838468,0.01838468,0.15760094,68.045828,287.91036)"
         d="m 2318.5752,-686.27555 c -1.7096,-0.98703 0.6201,-17.83353 0.1092,-19.74033 -0.511,-1.90679 -10.9518,-15.33144 -9.9648,-17.04103 0.9871,-1.70958 17.8336,0.62012 19.7404,0.10919 1.9068,-0.51092 15.3314,-10.95175 17.041,-9.96472 1.7096,0.98703 -0.6201,17.83353 -0.1092,19.74033 0.5109,1.9068 10.9518,15.33144 9.9647,17.04103 -0.987,1.70959 -17.8335,-0.62012 -19.7403,-0.10919 -1.9068,0.51092 -15.3314,10.95175 -17.041,9.96472 z"
         inkscape:randomized="0"
         inkscape:rounded="0.1"
         inkscape:flatsided="false"
         sodipodi:arg2="2.8797933"
         sodipodi:arg1="2.0943951"
         sodipodi:r2="13.824791"
         sodipodi:r1="26.925823"
         sodipodi:cy="-709.59399"
         sodipodi:cx="2332.0381"
         sodipodi:sides="4"
         id="path3473"
         style="fill:#ffb921;fill-opacity:1;fill-rule:evenodd;stroke:#000000;stroke-width:4;stroke-miterlimit:4;stroke-dasharray:none;stroke-opacity:1"
         sodipodi:type="star" />
      <circle
         style="fill:#000000;fill-opacity:1;fill-rule:evenodd;stroke-width:0.136822"
         id="circle3475"
         cx="422.53156"
         cy="133.20389"
         r="0.96188992" />
    </g>
    <path
       style="fill:#facc15;fill-opacity:1;stroke-width:0.707107"
       d="m 1874.5778,306.69794 c -5.2462,-4.72505 -6.8087,-5.31531 -14.4136,-5.44535 -5.808,-0.0993 -5.9171,-0.57389 -1.2952,-5.63228 2.2972,-2.51409 4.5066,-5.20747 4.9098,-5.98528 0.4032,-0.77782 0.9606,-4.52206 1.2388,-8.32052 l 0.5056,-6.90631 4.209,3.72433 c 7.3926,6.54128 7.0014,6.35213 14.4358,6.9794 3.7717,0.31823 6.9704,0.69141 7.1083,0.82927 0.1378,0.13787 -1.9466,2.71128 -4.6321,5.71869 l -4.8828,5.46801 -0.4989,7.03694 c -0.2744,3.87032 -0.7656,7.03694 -1.0915,7.03694 -0.3259,0 -2.8429,-2.02673 -5.5932,-4.50384 z m 1.8872,-9.26824 c 2.0569,-1.4407 2.6116,-4.19537 1.34,-6.65443 -1.7705,-3.42364 -5.7608,-3.97024 -8.5586,-1.17239 -2.1211,2.12111 -2.2142,4.53634 -0.2701,7.00785 1.6868,2.14437 5.0685,2.51419 7.4887,0.81897 z"
       id="path975"
       transform="scale(0.26458333)" />
    <path
       style="fill:#facc15;fill-opacity:1;stroke-width:0.707107"
       d="m 1875.7124,307.72952 c -5.6912,-5.15393 -6.8071,-5.71658 -12.1701,-6.1364 -6.1444,-0.48099 -8.0524,-0.86705 -8.0524,-1.62931 0,-0.33243 1.7718,-2.59009 3.9373,-5.01702 2.1655,-2.42693 4.1947,-5.09221 4.5092,-5.92284 0.3145,-0.83064 0.8041,-4.45565 1.0879,-8.0556 l 0.516,-6.54535 4.2301,3.71693 c 7.1609,6.29227 7.0596,6.24365 14.4586,6.94366 3.76,0.35574 6.9271,0.73742 7.0378,0.84819 0.1108,0.11076 -1.9785,2.67567 -4.6429,5.69978 l -4.8443,5.49839 -0.5018,6.6931 c -0.276,3.6812 -0.7675,6.85729 -1.0922,7.05797 -0.3247,0.20068 -2.3376,-1.2175 -4.4732,-3.1515 z m 0.364,-10.00576 c 3.0481,-1.63132 2.9787,-7.51225 -0.1082,-9.16432 -3.5066,-1.87667 -8.4574,0.8226 -8.4574,4.61112 0,3.85024 4.9563,6.48485 8.5656,4.5532 z"
       id="path1013"
       transform="scale(0.26458333)" />
  </g>
</svg>
